%TF.GenerationSoftware,KiCad,Pcbnew,10.0.5*%
%TF.CreationDate,2026-07-22T19:00:05-04:00*%
%TF.ProjectId,so_cristal,736f5f63-7269-4737-9461-6c2e6b696361,rev?*%
%TF.SameCoordinates,Original*%
%TF.FileFunction,AssemblyDrawing,Top*%
%FSLAX46Y46*%
G04 Gerber Fmt 4.6, Leading zero omitted, Abs format (unit mm)*
G04 Created by KiCad (PCBNEW 10.0.5) date 2026-07-22 19:00:05*
%MOMM*%
%LPD*%
G01*
G04 APERTURE LIST*
%ADD10C,0.150000*%
%ADD11C,0.110000*%
%ADD12C,0.080000*%
%ADD13C,0.100000*%
G04 APERTURE END LIST*
D10*
X54309524Y-16854819D02*
X54309524Y-15854819D01*
X54309524Y-15854819D02*
X54642857Y-16569104D01*
X54642857Y-16569104D02*
X54976190Y-15854819D01*
X54976190Y-15854819D02*
X54976190Y-16854819D01*
X55452381Y-16854819D02*
X55452381Y-15854819D01*
X55452381Y-15854819D02*
X55785714Y-16569104D01*
X55785714Y-16569104D02*
X56119047Y-15854819D01*
X56119047Y-15854819D02*
X56119047Y-16854819D01*
X56928571Y-16331009D02*
X57071428Y-16378628D01*
X57071428Y-16378628D02*
X57119047Y-16426247D01*
X57119047Y-16426247D02*
X57166666Y-16521485D01*
X57166666Y-16521485D02*
X57166666Y-16664342D01*
X57166666Y-16664342D02*
X57119047Y-16759580D01*
X57119047Y-16759580D02*
X57071428Y-16807200D01*
X57071428Y-16807200D02*
X56976190Y-16854819D01*
X56976190Y-16854819D02*
X56595238Y-16854819D01*
X56595238Y-16854819D02*
X56595238Y-15854819D01*
X56595238Y-15854819D02*
X56928571Y-15854819D01*
X56928571Y-15854819D02*
X57023809Y-15902438D01*
X57023809Y-15902438D02*
X57071428Y-15950057D01*
X57071428Y-15950057D02*
X57119047Y-16045295D01*
X57119047Y-16045295D02*
X57119047Y-16140533D01*
X57119047Y-16140533D02*
X57071428Y-16235771D01*
X57071428Y-16235771D02*
X57023809Y-16283390D01*
X57023809Y-16283390D02*
X56928571Y-16331009D01*
X56928571Y-16331009D02*
X56595238Y-16331009D01*
X57452381Y-15854819D02*
X58023809Y-15854819D01*
X57738095Y-16854819D02*
X57738095Y-15854819D01*
X58261905Y-15854819D02*
X58880952Y-15854819D01*
X58880952Y-15854819D02*
X58547619Y-16235771D01*
X58547619Y-16235771D02*
X58690476Y-16235771D01*
X58690476Y-16235771D02*
X58785714Y-16283390D01*
X58785714Y-16283390D02*
X58833333Y-16331009D01*
X58833333Y-16331009D02*
X58880952Y-16426247D01*
X58880952Y-16426247D02*
X58880952Y-16664342D01*
X58880952Y-16664342D02*
X58833333Y-16759580D01*
X58833333Y-16759580D02*
X58785714Y-16807200D01*
X58785714Y-16807200D02*
X58690476Y-16854819D01*
X58690476Y-16854819D02*
X58404762Y-16854819D01*
X58404762Y-16854819D02*
X58309524Y-16807200D01*
X58309524Y-16807200D02*
X58261905Y-16759580D01*
X59357143Y-16854819D02*
X59547619Y-16854819D01*
X59547619Y-16854819D02*
X59642857Y-16807200D01*
X59642857Y-16807200D02*
X59690476Y-16759580D01*
X59690476Y-16759580D02*
X59785714Y-16616723D01*
X59785714Y-16616723D02*
X59833333Y-16426247D01*
X59833333Y-16426247D02*
X59833333Y-16045295D01*
X59833333Y-16045295D02*
X59785714Y-15950057D01*
X59785714Y-15950057D02*
X59738095Y-15902438D01*
X59738095Y-15902438D02*
X59642857Y-15854819D01*
X59642857Y-15854819D02*
X59452381Y-15854819D01*
X59452381Y-15854819D02*
X59357143Y-15902438D01*
X59357143Y-15902438D02*
X59309524Y-15950057D01*
X59309524Y-15950057D02*
X59261905Y-16045295D01*
X59261905Y-16045295D02*
X59261905Y-16283390D01*
X59261905Y-16283390D02*
X59309524Y-16378628D01*
X59309524Y-16378628D02*
X59357143Y-16426247D01*
X59357143Y-16426247D02*
X59452381Y-16473866D01*
X59452381Y-16473866D02*
X59642857Y-16473866D01*
X59642857Y-16473866D02*
X59738095Y-16426247D01*
X59738095Y-16426247D02*
X59785714Y-16378628D01*
X59785714Y-16378628D02*
X59833333Y-16283390D01*
X60452381Y-15854819D02*
X60547619Y-15854819D01*
X60547619Y-15854819D02*
X60642857Y-15902438D01*
X60642857Y-15902438D02*
X60690476Y-15950057D01*
X60690476Y-15950057D02*
X60738095Y-16045295D01*
X60738095Y-16045295D02*
X60785714Y-16235771D01*
X60785714Y-16235771D02*
X60785714Y-16473866D01*
X60785714Y-16473866D02*
X60738095Y-16664342D01*
X60738095Y-16664342D02*
X60690476Y-16759580D01*
X60690476Y-16759580D02*
X60642857Y-16807200D01*
X60642857Y-16807200D02*
X60547619Y-16854819D01*
X60547619Y-16854819D02*
X60452381Y-16854819D01*
X60452381Y-16854819D02*
X60357143Y-16807200D01*
X60357143Y-16807200D02*
X60309524Y-16759580D01*
X60309524Y-16759580D02*
X60261905Y-16664342D01*
X60261905Y-16664342D02*
X60214286Y-16473866D01*
X60214286Y-16473866D02*
X60214286Y-16235771D01*
X60214286Y-16235771D02*
X60261905Y-16045295D01*
X60261905Y-16045295D02*
X60309524Y-15950057D01*
X60309524Y-15950057D02*
X60357143Y-15902438D01*
X60357143Y-15902438D02*
X60452381Y-15854819D01*
X61642857Y-16188152D02*
X61642857Y-16854819D01*
X61404762Y-15807200D02*
X61166667Y-16521485D01*
X61166667Y-16521485D02*
X61785714Y-16521485D01*
D11*
X58395937Y-14068571D02*
X58361651Y-14137142D01*
X58361651Y-14137142D02*
X58293080Y-14205714D01*
X58293080Y-14205714D02*
X58190222Y-14308571D01*
X58190222Y-14308571D02*
X58155937Y-14377142D01*
X58155937Y-14377142D02*
X58155937Y-14445714D01*
X58327365Y-14411428D02*
X58293080Y-14480000D01*
X58293080Y-14480000D02*
X58224508Y-14548571D01*
X58224508Y-14548571D02*
X58087365Y-14582857D01*
X58087365Y-14582857D02*
X57847365Y-14582857D01*
X57847365Y-14582857D02*
X57710222Y-14548571D01*
X57710222Y-14548571D02*
X57641651Y-14480000D01*
X57641651Y-14480000D02*
X57607365Y-14411428D01*
X57607365Y-14411428D02*
X57607365Y-14274285D01*
X57607365Y-14274285D02*
X57641651Y-14205714D01*
X57641651Y-14205714D02*
X57710222Y-14137142D01*
X57710222Y-14137142D02*
X57847365Y-14102857D01*
X57847365Y-14102857D02*
X58087365Y-14102857D01*
X58087365Y-14102857D02*
X58224508Y-14137142D01*
X58224508Y-14137142D02*
X58293080Y-14205714D01*
X58293080Y-14205714D02*
X58327365Y-14274285D01*
X58327365Y-14274285D02*
X58327365Y-14411428D01*
X57607365Y-13862856D02*
X57607365Y-13417142D01*
X57607365Y-13417142D02*
X57881651Y-13657142D01*
X57881651Y-13657142D02*
X57881651Y-13554285D01*
X57881651Y-13554285D02*
X57915937Y-13485714D01*
X57915937Y-13485714D02*
X57950222Y-13451428D01*
X57950222Y-13451428D02*
X58018794Y-13417142D01*
X58018794Y-13417142D02*
X58190222Y-13417142D01*
X58190222Y-13417142D02*
X58258794Y-13451428D01*
X58258794Y-13451428D02*
X58293080Y-13485714D01*
X58293080Y-13485714D02*
X58327365Y-13554285D01*
X58327365Y-13554285D02*
X58327365Y-13759999D01*
X58327365Y-13759999D02*
X58293080Y-13828571D01*
X58293080Y-13828571D02*
X58258794Y-13862856D01*
D10*
X4928571Y-37914819D02*
X4928571Y-36914819D01*
X5404761Y-37914819D02*
X5404761Y-36914819D01*
X5404761Y-36914819D02*
X5976189Y-37914819D01*
X5976189Y-37914819D02*
X5976189Y-36914819D01*
X7642856Y-37914819D02*
X7642856Y-37391009D01*
X7642856Y-37391009D02*
X7595237Y-37295771D01*
X7595237Y-37295771D02*
X7499999Y-37248152D01*
X7499999Y-37248152D02*
X7309523Y-37248152D01*
X7309523Y-37248152D02*
X7214285Y-37295771D01*
X7642856Y-37867200D02*
X7547618Y-37914819D01*
X7547618Y-37914819D02*
X7309523Y-37914819D01*
X7309523Y-37914819D02*
X7214285Y-37867200D01*
X7214285Y-37867200D02*
X7166666Y-37771961D01*
X7166666Y-37771961D02*
X7166666Y-37676723D01*
X7166666Y-37676723D02*
X7214285Y-37581485D01*
X7214285Y-37581485D02*
X7309523Y-37533866D01*
X7309523Y-37533866D02*
X7547618Y-37533866D01*
X7547618Y-37533866D02*
X7642856Y-37486247D01*
X8880952Y-37914819D02*
X8880952Y-36914819D01*
X8880952Y-37295771D02*
X8976190Y-37248152D01*
X8976190Y-37248152D02*
X9166666Y-37248152D01*
X9166666Y-37248152D02*
X9261904Y-37295771D01*
X9261904Y-37295771D02*
X9309523Y-37343390D01*
X9309523Y-37343390D02*
X9357142Y-37438628D01*
X9357142Y-37438628D02*
X9357142Y-37724342D01*
X9357142Y-37724342D02*
X9309523Y-37819580D01*
X9309523Y-37819580D02*
X9261904Y-37867200D01*
X9261904Y-37867200D02*
X9166666Y-37914819D01*
X9166666Y-37914819D02*
X8976190Y-37914819D01*
X8976190Y-37914819D02*
X8880952Y-37867200D01*
X11071428Y-36962438D02*
X10976190Y-36914819D01*
X10976190Y-36914819D02*
X10833333Y-36914819D01*
X10833333Y-36914819D02*
X10690476Y-36962438D01*
X10690476Y-36962438D02*
X10595238Y-37057676D01*
X10595238Y-37057676D02*
X10547619Y-37152914D01*
X10547619Y-37152914D02*
X10500000Y-37343390D01*
X10500000Y-37343390D02*
X10500000Y-37486247D01*
X10500000Y-37486247D02*
X10547619Y-37676723D01*
X10547619Y-37676723D02*
X10595238Y-37771961D01*
X10595238Y-37771961D02*
X10690476Y-37867200D01*
X10690476Y-37867200D02*
X10833333Y-37914819D01*
X10833333Y-37914819D02*
X10928571Y-37914819D01*
X10928571Y-37914819D02*
X11071428Y-37867200D01*
X11071428Y-37867200D02*
X11119047Y-37819580D01*
X11119047Y-37819580D02*
X11119047Y-37486247D01*
X11119047Y-37486247D02*
X10928571Y-37486247D01*
X7454819Y-32873333D02*
X8169104Y-32873333D01*
X8169104Y-32873333D02*
X8311961Y-32920952D01*
X8311961Y-32920952D02*
X8407200Y-33016190D01*
X8407200Y-33016190D02*
X8454819Y-33159047D01*
X8454819Y-33159047D02*
X8454819Y-33254285D01*
X8454819Y-31873333D02*
X8454819Y-32444761D01*
X8454819Y-32159047D02*
X7454819Y-32159047D01*
X7454819Y-32159047D02*
X7597676Y-32254285D01*
X7597676Y-32254285D02*
X7692914Y-32349523D01*
X7692914Y-32349523D02*
X7740533Y-32444761D01*
X37880952Y-26734819D02*
X38452380Y-26734819D01*
X38166666Y-27734819D02*
X38166666Y-26734819D01*
X39261904Y-27734819D02*
X38785714Y-27734819D01*
X38785714Y-27734819D02*
X38785714Y-26734819D01*
X39785714Y-26734819D02*
X39880952Y-26734819D01*
X39880952Y-26734819D02*
X39976190Y-26782438D01*
X39976190Y-26782438D02*
X40023809Y-26830057D01*
X40023809Y-26830057D02*
X40071428Y-26925295D01*
X40071428Y-26925295D02*
X40119047Y-27115771D01*
X40119047Y-27115771D02*
X40119047Y-27353866D01*
X40119047Y-27353866D02*
X40071428Y-27544342D01*
X40071428Y-27544342D02*
X40023809Y-27639580D01*
X40023809Y-27639580D02*
X39976190Y-27687200D01*
X39976190Y-27687200D02*
X39880952Y-27734819D01*
X39880952Y-27734819D02*
X39785714Y-27734819D01*
X39785714Y-27734819D02*
X39690476Y-27687200D01*
X39690476Y-27687200D02*
X39642857Y-27639580D01*
X39642857Y-27639580D02*
X39595238Y-27544342D01*
X39595238Y-27544342D02*
X39547619Y-27353866D01*
X39547619Y-27353866D02*
X39547619Y-27115771D01*
X39547619Y-27115771D02*
X39595238Y-26925295D01*
X39595238Y-26925295D02*
X39642857Y-26830057D01*
X39642857Y-26830057D02*
X39690476Y-26782438D01*
X39690476Y-26782438D02*
X39785714Y-26734819D01*
X40452381Y-26734819D02*
X41119047Y-26734819D01*
X41119047Y-26734819D02*
X40690476Y-27734819D01*
X41928571Y-27068152D02*
X41928571Y-27734819D01*
X41690476Y-26687200D02*
X41452381Y-27401485D01*
X41452381Y-27401485D02*
X42071428Y-27401485D01*
X39454819Y-22761904D02*
X40264342Y-22761904D01*
X40264342Y-22761904D02*
X40359580Y-22714285D01*
X40359580Y-22714285D02*
X40407200Y-22666666D01*
X40407200Y-22666666D02*
X40454819Y-22571428D01*
X40454819Y-22571428D02*
X40454819Y-22380952D01*
X40454819Y-22380952D02*
X40407200Y-22285714D01*
X40407200Y-22285714D02*
X40359580Y-22238095D01*
X40359580Y-22238095D02*
X40264342Y-22190476D01*
X40264342Y-22190476D02*
X39454819Y-22190476D01*
X40454819Y-21190476D02*
X40454819Y-21761904D01*
X40454819Y-21476190D02*
X39454819Y-21476190D01*
X39454819Y-21476190D02*
X39597676Y-21571428D01*
X39597676Y-21571428D02*
X39692914Y-21666666D01*
X39692914Y-21666666D02*
X39740533Y-21761904D01*
X36738095Y-13914819D02*
X37071428Y-14914819D01*
X37071428Y-14914819D02*
X37404761Y-13914819D01*
X37738095Y-14533866D02*
X38500000Y-14533866D01*
X38119047Y-14914819D02*
X38119047Y-14152914D01*
X39595238Y-13914819D02*
X39928571Y-14914819D01*
X39928571Y-14914819D02*
X40261904Y-13914819D01*
X40595238Y-14533866D02*
X41357143Y-14533866D01*
X43119047Y-13962438D02*
X43023809Y-13914819D01*
X43023809Y-13914819D02*
X42880952Y-13914819D01*
X42880952Y-13914819D02*
X42738095Y-13962438D01*
X42738095Y-13962438D02*
X42642857Y-14057676D01*
X42642857Y-14057676D02*
X42595238Y-14152914D01*
X42595238Y-14152914D02*
X42547619Y-14343390D01*
X42547619Y-14343390D02*
X42547619Y-14486247D01*
X42547619Y-14486247D02*
X42595238Y-14676723D01*
X42595238Y-14676723D02*
X42642857Y-14771961D01*
X42642857Y-14771961D02*
X42738095Y-14867200D01*
X42738095Y-14867200D02*
X42880952Y-14914819D01*
X42880952Y-14914819D02*
X42976190Y-14914819D01*
X42976190Y-14914819D02*
X43119047Y-14867200D01*
X43119047Y-14867200D02*
X43166666Y-14819580D01*
X43166666Y-14819580D02*
X43166666Y-14486247D01*
X43166666Y-14486247D02*
X42976190Y-14486247D01*
X39454819Y-9873333D02*
X40169104Y-9873333D01*
X40169104Y-9873333D02*
X40311961Y-9920952D01*
X40311961Y-9920952D02*
X40407200Y-10016190D01*
X40407200Y-10016190D02*
X40454819Y-10159047D01*
X40454819Y-10159047D02*
X40454819Y-10254285D01*
X39454819Y-9492380D02*
X39454819Y-8873333D01*
X39454819Y-8873333D02*
X39835771Y-9206666D01*
X39835771Y-9206666D02*
X39835771Y-9063809D01*
X39835771Y-9063809D02*
X39883390Y-8968571D01*
X39883390Y-8968571D02*
X39931009Y-8920952D01*
X39931009Y-8920952D02*
X40026247Y-8873333D01*
X40026247Y-8873333D02*
X40264342Y-8873333D01*
X40264342Y-8873333D02*
X40359580Y-8920952D01*
X40359580Y-8920952D02*
X40407200Y-8968571D01*
X40407200Y-8968571D02*
X40454819Y-9063809D01*
X40454819Y-9063809D02*
X40454819Y-9349523D01*
X40454819Y-9349523D02*
X40407200Y-9444761D01*
X40407200Y-9444761D02*
X40359580Y-9492380D01*
X53452380Y-44134819D02*
X52880952Y-44134819D01*
X53166666Y-44134819D02*
X53166666Y-43134819D01*
X53166666Y-43134819D02*
X53071428Y-43277676D01*
X53071428Y-43277676D02*
X52976190Y-43372914D01*
X52976190Y-43372914D02*
X52880952Y-43420533D01*
X54071428Y-43134819D02*
X54166666Y-43134819D01*
X54166666Y-43134819D02*
X54261904Y-43182438D01*
X54261904Y-43182438D02*
X54309523Y-43230057D01*
X54309523Y-43230057D02*
X54357142Y-43325295D01*
X54357142Y-43325295D02*
X54404761Y-43515771D01*
X54404761Y-43515771D02*
X54404761Y-43753866D01*
X54404761Y-43753866D02*
X54357142Y-43944342D01*
X54357142Y-43944342D02*
X54309523Y-44039580D01*
X54309523Y-44039580D02*
X54261904Y-44087200D01*
X54261904Y-44087200D02*
X54166666Y-44134819D01*
X54166666Y-44134819D02*
X54071428Y-44134819D01*
X54071428Y-44134819D02*
X53976190Y-44087200D01*
X53976190Y-44087200D02*
X53928571Y-44039580D01*
X53928571Y-44039580D02*
X53880952Y-43944342D01*
X53880952Y-43944342D02*
X53833333Y-43753866D01*
X53833333Y-43753866D02*
X53833333Y-43515771D01*
X53833333Y-43515771D02*
X53880952Y-43325295D01*
X53880952Y-43325295D02*
X53928571Y-43230057D01*
X53928571Y-43230057D02*
X53976190Y-43182438D01*
X53976190Y-43182438D02*
X54071428Y-43134819D01*
X55023809Y-43134819D02*
X55119047Y-43134819D01*
X55119047Y-43134819D02*
X55214285Y-43182438D01*
X55214285Y-43182438D02*
X55261904Y-43230057D01*
X55261904Y-43230057D02*
X55309523Y-43325295D01*
X55309523Y-43325295D02*
X55357142Y-43515771D01*
X55357142Y-43515771D02*
X55357142Y-43753866D01*
X55357142Y-43753866D02*
X55309523Y-43944342D01*
X55309523Y-43944342D02*
X55261904Y-44039580D01*
X55261904Y-44039580D02*
X55214285Y-44087200D01*
X55214285Y-44087200D02*
X55119047Y-44134819D01*
X55119047Y-44134819D02*
X55023809Y-44134819D01*
X55023809Y-44134819D02*
X54928571Y-44087200D01*
X54928571Y-44087200D02*
X54880952Y-44039580D01*
X54880952Y-44039580D02*
X54833333Y-43944342D01*
X54833333Y-43944342D02*
X54785714Y-43753866D01*
X54785714Y-43753866D02*
X54785714Y-43515771D01*
X54785714Y-43515771D02*
X54833333Y-43325295D01*
X54833333Y-43325295D02*
X54880952Y-43230057D01*
X54880952Y-43230057D02*
X54928571Y-43182438D01*
X54928571Y-43182438D02*
X55023809Y-43134819D01*
X55785714Y-43468152D02*
X55785714Y-44134819D01*
X55785714Y-43563390D02*
X55833333Y-43515771D01*
X55833333Y-43515771D02*
X55928571Y-43468152D01*
X55928571Y-43468152D02*
X56071428Y-43468152D01*
X56071428Y-43468152D02*
X56166666Y-43515771D01*
X56166666Y-43515771D02*
X56214285Y-43611009D01*
X56214285Y-43611009D02*
X56214285Y-44134819D01*
X57023809Y-43611009D02*
X56690476Y-43611009D01*
X56690476Y-44134819D02*
X56690476Y-43134819D01*
X56690476Y-43134819D02*
X57166666Y-43134819D01*
D12*
X54916666Y-42179530D02*
X54892857Y-42203340D01*
X54892857Y-42203340D02*
X54821428Y-42227149D01*
X54821428Y-42227149D02*
X54773809Y-42227149D01*
X54773809Y-42227149D02*
X54702381Y-42203340D01*
X54702381Y-42203340D02*
X54654762Y-42155720D01*
X54654762Y-42155720D02*
X54630952Y-42108101D01*
X54630952Y-42108101D02*
X54607143Y-42012863D01*
X54607143Y-42012863D02*
X54607143Y-41941435D01*
X54607143Y-41941435D02*
X54630952Y-41846197D01*
X54630952Y-41846197D02*
X54654762Y-41798578D01*
X54654762Y-41798578D02*
X54702381Y-41750959D01*
X54702381Y-41750959D02*
X54773809Y-41727149D01*
X54773809Y-41727149D02*
X54821428Y-41727149D01*
X54821428Y-41727149D02*
X54892857Y-41750959D01*
X54892857Y-41750959D02*
X54916666Y-41774768D01*
X55107143Y-41774768D02*
X55130952Y-41750959D01*
X55130952Y-41750959D02*
X55178571Y-41727149D01*
X55178571Y-41727149D02*
X55297619Y-41727149D01*
X55297619Y-41727149D02*
X55345238Y-41750959D01*
X55345238Y-41750959D02*
X55369047Y-41774768D01*
X55369047Y-41774768D02*
X55392857Y-41822387D01*
X55392857Y-41822387D02*
X55392857Y-41870006D01*
X55392857Y-41870006D02*
X55369047Y-41941435D01*
X55369047Y-41941435D02*
X55083333Y-42227149D01*
X55083333Y-42227149D02*
X55392857Y-42227149D01*
D10*
X53452380Y-24134819D02*
X52880952Y-24134819D01*
X53166666Y-24134819D02*
X53166666Y-23134819D01*
X53166666Y-23134819D02*
X53071428Y-23277676D01*
X53071428Y-23277676D02*
X52976190Y-23372914D01*
X52976190Y-23372914D02*
X52880952Y-23420533D01*
X54071428Y-23134819D02*
X54166666Y-23134819D01*
X54166666Y-23134819D02*
X54261904Y-23182438D01*
X54261904Y-23182438D02*
X54309523Y-23230057D01*
X54309523Y-23230057D02*
X54357142Y-23325295D01*
X54357142Y-23325295D02*
X54404761Y-23515771D01*
X54404761Y-23515771D02*
X54404761Y-23753866D01*
X54404761Y-23753866D02*
X54357142Y-23944342D01*
X54357142Y-23944342D02*
X54309523Y-24039580D01*
X54309523Y-24039580D02*
X54261904Y-24087200D01*
X54261904Y-24087200D02*
X54166666Y-24134819D01*
X54166666Y-24134819D02*
X54071428Y-24134819D01*
X54071428Y-24134819D02*
X53976190Y-24087200D01*
X53976190Y-24087200D02*
X53928571Y-24039580D01*
X53928571Y-24039580D02*
X53880952Y-23944342D01*
X53880952Y-23944342D02*
X53833333Y-23753866D01*
X53833333Y-23753866D02*
X53833333Y-23515771D01*
X53833333Y-23515771D02*
X53880952Y-23325295D01*
X53880952Y-23325295D02*
X53928571Y-23230057D01*
X53928571Y-23230057D02*
X53976190Y-23182438D01*
X53976190Y-23182438D02*
X54071428Y-23134819D01*
X55023809Y-23134819D02*
X55119047Y-23134819D01*
X55119047Y-23134819D02*
X55214285Y-23182438D01*
X55214285Y-23182438D02*
X55261904Y-23230057D01*
X55261904Y-23230057D02*
X55309523Y-23325295D01*
X55309523Y-23325295D02*
X55357142Y-23515771D01*
X55357142Y-23515771D02*
X55357142Y-23753866D01*
X55357142Y-23753866D02*
X55309523Y-23944342D01*
X55309523Y-23944342D02*
X55261904Y-24039580D01*
X55261904Y-24039580D02*
X55214285Y-24087200D01*
X55214285Y-24087200D02*
X55119047Y-24134819D01*
X55119047Y-24134819D02*
X55023809Y-24134819D01*
X55023809Y-24134819D02*
X54928571Y-24087200D01*
X54928571Y-24087200D02*
X54880952Y-24039580D01*
X54880952Y-24039580D02*
X54833333Y-23944342D01*
X54833333Y-23944342D02*
X54785714Y-23753866D01*
X54785714Y-23753866D02*
X54785714Y-23515771D01*
X54785714Y-23515771D02*
X54833333Y-23325295D01*
X54833333Y-23325295D02*
X54880952Y-23230057D01*
X54880952Y-23230057D02*
X54928571Y-23182438D01*
X54928571Y-23182438D02*
X55023809Y-23134819D01*
X55785714Y-23468152D02*
X55785714Y-24134819D01*
X55785714Y-23563390D02*
X55833333Y-23515771D01*
X55833333Y-23515771D02*
X55928571Y-23468152D01*
X55928571Y-23468152D02*
X56071428Y-23468152D01*
X56071428Y-23468152D02*
X56166666Y-23515771D01*
X56166666Y-23515771D02*
X56214285Y-23611009D01*
X56214285Y-23611009D02*
X56214285Y-24134819D01*
X57023809Y-23611009D02*
X56690476Y-23611009D01*
X56690476Y-24134819D02*
X56690476Y-23134819D01*
X56690476Y-23134819D02*
X57166666Y-23134819D01*
D12*
X54916666Y-22179530D02*
X54892857Y-22203340D01*
X54892857Y-22203340D02*
X54821428Y-22227149D01*
X54821428Y-22227149D02*
X54773809Y-22227149D01*
X54773809Y-22227149D02*
X54702381Y-22203340D01*
X54702381Y-22203340D02*
X54654762Y-22155720D01*
X54654762Y-22155720D02*
X54630952Y-22108101D01*
X54630952Y-22108101D02*
X54607143Y-22012863D01*
X54607143Y-22012863D02*
X54607143Y-21941435D01*
X54607143Y-21941435D02*
X54630952Y-21846197D01*
X54630952Y-21846197D02*
X54654762Y-21798578D01*
X54654762Y-21798578D02*
X54702381Y-21750959D01*
X54702381Y-21750959D02*
X54773809Y-21727149D01*
X54773809Y-21727149D02*
X54821428Y-21727149D01*
X54821428Y-21727149D02*
X54892857Y-21750959D01*
X54892857Y-21750959D02*
X54916666Y-21774768D01*
X55392857Y-22227149D02*
X55107143Y-22227149D01*
X55250000Y-22227149D02*
X55250000Y-21727149D01*
X55250000Y-21727149D02*
X55202381Y-21798578D01*
X55202381Y-21798578D02*
X55154762Y-21846197D01*
X55154762Y-21846197D02*
X55107143Y-21870006D01*
D10*
X36104819Y-58071428D02*
X36104819Y-58642856D01*
X36104819Y-58357142D02*
X35104819Y-58357142D01*
X35104819Y-58357142D02*
X35247676Y-58452380D01*
X35247676Y-58452380D02*
X35342914Y-58547618D01*
X35342914Y-58547618D02*
X35390533Y-58642856D01*
X35104819Y-57452380D02*
X35104819Y-57357142D01*
X35104819Y-57357142D02*
X35152438Y-57261904D01*
X35152438Y-57261904D02*
X35200057Y-57214285D01*
X35200057Y-57214285D02*
X35295295Y-57166666D01*
X35295295Y-57166666D02*
X35485771Y-57119047D01*
X35485771Y-57119047D02*
X35723866Y-57119047D01*
X35723866Y-57119047D02*
X35914342Y-57166666D01*
X35914342Y-57166666D02*
X36009580Y-57214285D01*
X36009580Y-57214285D02*
X36057200Y-57261904D01*
X36057200Y-57261904D02*
X36104819Y-57357142D01*
X36104819Y-57357142D02*
X36104819Y-57452380D01*
X36104819Y-57452380D02*
X36057200Y-57547618D01*
X36057200Y-57547618D02*
X36009580Y-57595237D01*
X36009580Y-57595237D02*
X35914342Y-57642856D01*
X35914342Y-57642856D02*
X35723866Y-57690475D01*
X35723866Y-57690475D02*
X35485771Y-57690475D01*
X35485771Y-57690475D02*
X35295295Y-57642856D01*
X35295295Y-57642856D02*
X35200057Y-57595237D01*
X35200057Y-57595237D02*
X35152438Y-57547618D01*
X35152438Y-57547618D02*
X35104819Y-57452380D01*
X35104819Y-56499999D02*
X35104819Y-56404761D01*
X35104819Y-56404761D02*
X35152438Y-56309523D01*
X35152438Y-56309523D02*
X35200057Y-56261904D01*
X35200057Y-56261904D02*
X35295295Y-56214285D01*
X35295295Y-56214285D02*
X35485771Y-56166666D01*
X35485771Y-56166666D02*
X35723866Y-56166666D01*
X35723866Y-56166666D02*
X35914342Y-56214285D01*
X35914342Y-56214285D02*
X36009580Y-56261904D01*
X36009580Y-56261904D02*
X36057200Y-56309523D01*
X36057200Y-56309523D02*
X36104819Y-56404761D01*
X36104819Y-56404761D02*
X36104819Y-56499999D01*
X36104819Y-56499999D02*
X36057200Y-56595237D01*
X36057200Y-56595237D02*
X36009580Y-56642856D01*
X36009580Y-56642856D02*
X35914342Y-56690475D01*
X35914342Y-56690475D02*
X35723866Y-56738094D01*
X35723866Y-56738094D02*
X35485771Y-56738094D01*
X35485771Y-56738094D02*
X35295295Y-56690475D01*
X35295295Y-56690475D02*
X35200057Y-56642856D01*
X35200057Y-56642856D02*
X35152438Y-56595237D01*
X35152438Y-56595237D02*
X35104819Y-56499999D01*
X36104819Y-55738094D02*
X35104819Y-55738094D01*
X35723866Y-55642856D02*
X36104819Y-55357142D01*
X35438152Y-55357142D02*
X35819104Y-55738094D01*
D12*
X34227149Y-57083333D02*
X33989054Y-57249999D01*
X34227149Y-57369047D02*
X33727149Y-57369047D01*
X33727149Y-57369047D02*
X33727149Y-57178571D01*
X33727149Y-57178571D02*
X33750959Y-57130952D01*
X33750959Y-57130952D02*
X33774768Y-57107142D01*
X33774768Y-57107142D02*
X33822387Y-57083333D01*
X33822387Y-57083333D02*
X33893816Y-57083333D01*
X33893816Y-57083333D02*
X33941435Y-57107142D01*
X33941435Y-57107142D02*
X33965244Y-57130952D01*
X33965244Y-57130952D02*
X33989054Y-57178571D01*
X33989054Y-57178571D02*
X33989054Y-57369047D01*
X34227149Y-56845237D02*
X34227149Y-56749999D01*
X34227149Y-56749999D02*
X34203340Y-56702380D01*
X34203340Y-56702380D02*
X34179530Y-56678571D01*
X34179530Y-56678571D02*
X34108101Y-56630952D01*
X34108101Y-56630952D02*
X34012863Y-56607142D01*
X34012863Y-56607142D02*
X33822387Y-56607142D01*
X33822387Y-56607142D02*
X33774768Y-56630952D01*
X33774768Y-56630952D02*
X33750959Y-56654761D01*
X33750959Y-56654761D02*
X33727149Y-56702380D01*
X33727149Y-56702380D02*
X33727149Y-56797618D01*
X33727149Y-56797618D02*
X33750959Y-56845237D01*
X33750959Y-56845237D02*
X33774768Y-56869047D01*
X33774768Y-56869047D02*
X33822387Y-56892856D01*
X33822387Y-56892856D02*
X33941435Y-56892856D01*
X33941435Y-56892856D02*
X33989054Y-56869047D01*
X33989054Y-56869047D02*
X34012863Y-56845237D01*
X34012863Y-56845237D02*
X34036673Y-56797618D01*
X34036673Y-56797618D02*
X34036673Y-56702380D01*
X34036673Y-56702380D02*
X34012863Y-56654761D01*
X34012863Y-56654761D02*
X33989054Y-56630952D01*
X33989054Y-56630952D02*
X33941435Y-56607142D01*
D10*
X4238095Y-58454819D02*
X4238095Y-57454819D01*
X4238095Y-57931009D02*
X4809523Y-57931009D01*
X4809523Y-58454819D02*
X4809523Y-57454819D01*
X5190476Y-57454819D02*
X5809523Y-57454819D01*
X5809523Y-57454819D02*
X5476190Y-57835771D01*
X5476190Y-57835771D02*
X5619047Y-57835771D01*
X5619047Y-57835771D02*
X5714285Y-57883390D01*
X5714285Y-57883390D02*
X5761904Y-57931009D01*
X5761904Y-57931009D02*
X5809523Y-58026247D01*
X5809523Y-58026247D02*
X5809523Y-58264342D01*
X5809523Y-58264342D02*
X5761904Y-58359580D01*
X5761904Y-58359580D02*
X5714285Y-58407200D01*
X5714285Y-58407200D02*
X5619047Y-58454819D01*
X5619047Y-58454819D02*
X5333333Y-58454819D01*
X5333333Y-58454819D02*
X5238095Y-58407200D01*
X5238095Y-58407200D02*
X5190476Y-58359580D01*
X74238095Y-5454819D02*
X74238095Y-4454819D01*
X74238095Y-4931009D02*
X74809523Y-4931009D01*
X74809523Y-5454819D02*
X74809523Y-4454819D01*
X75238095Y-4550057D02*
X75285714Y-4502438D01*
X75285714Y-4502438D02*
X75380952Y-4454819D01*
X75380952Y-4454819D02*
X75619047Y-4454819D01*
X75619047Y-4454819D02*
X75714285Y-4502438D01*
X75714285Y-4502438D02*
X75761904Y-4550057D01*
X75761904Y-4550057D02*
X75809523Y-4645295D01*
X75809523Y-4645295D02*
X75809523Y-4740533D01*
X75809523Y-4740533D02*
X75761904Y-4883390D01*
X75761904Y-4883390D02*
X75190476Y-5454819D01*
X75190476Y-5454819D02*
X75809523Y-5454819D01*
X4238095Y-5454819D02*
X4238095Y-4454819D01*
X4238095Y-4931009D02*
X4809523Y-4931009D01*
X4809523Y-5454819D02*
X4809523Y-4454819D01*
X5809523Y-5454819D02*
X5238095Y-5454819D01*
X5523809Y-5454819D02*
X5523809Y-4454819D01*
X5523809Y-4454819D02*
X5428571Y-4597676D01*
X5428571Y-4597676D02*
X5333333Y-4692914D01*
X5333333Y-4692914D02*
X5238095Y-4740533D01*
X63104819Y-51071428D02*
X63104819Y-51642856D01*
X63104819Y-51357142D02*
X62104819Y-51357142D01*
X62104819Y-51357142D02*
X62247676Y-51452380D01*
X62247676Y-51452380D02*
X62342914Y-51547618D01*
X62342914Y-51547618D02*
X62390533Y-51642856D01*
X62104819Y-50452380D02*
X62104819Y-50357142D01*
X62104819Y-50357142D02*
X62152438Y-50261904D01*
X62152438Y-50261904D02*
X62200057Y-50214285D01*
X62200057Y-50214285D02*
X62295295Y-50166666D01*
X62295295Y-50166666D02*
X62485771Y-50119047D01*
X62485771Y-50119047D02*
X62723866Y-50119047D01*
X62723866Y-50119047D02*
X62914342Y-50166666D01*
X62914342Y-50166666D02*
X63009580Y-50214285D01*
X63009580Y-50214285D02*
X63057200Y-50261904D01*
X63057200Y-50261904D02*
X63104819Y-50357142D01*
X63104819Y-50357142D02*
X63104819Y-50452380D01*
X63104819Y-50452380D02*
X63057200Y-50547618D01*
X63057200Y-50547618D02*
X63009580Y-50595237D01*
X63009580Y-50595237D02*
X62914342Y-50642856D01*
X62914342Y-50642856D02*
X62723866Y-50690475D01*
X62723866Y-50690475D02*
X62485771Y-50690475D01*
X62485771Y-50690475D02*
X62295295Y-50642856D01*
X62295295Y-50642856D02*
X62200057Y-50595237D01*
X62200057Y-50595237D02*
X62152438Y-50547618D01*
X62152438Y-50547618D02*
X62104819Y-50452380D01*
X62104819Y-49499999D02*
X62104819Y-49404761D01*
X62104819Y-49404761D02*
X62152438Y-49309523D01*
X62152438Y-49309523D02*
X62200057Y-49261904D01*
X62200057Y-49261904D02*
X62295295Y-49214285D01*
X62295295Y-49214285D02*
X62485771Y-49166666D01*
X62485771Y-49166666D02*
X62723866Y-49166666D01*
X62723866Y-49166666D02*
X62914342Y-49214285D01*
X62914342Y-49214285D02*
X63009580Y-49261904D01*
X63009580Y-49261904D02*
X63057200Y-49309523D01*
X63057200Y-49309523D02*
X63104819Y-49404761D01*
X63104819Y-49404761D02*
X63104819Y-49499999D01*
X63104819Y-49499999D02*
X63057200Y-49595237D01*
X63057200Y-49595237D02*
X63009580Y-49642856D01*
X63009580Y-49642856D02*
X62914342Y-49690475D01*
X62914342Y-49690475D02*
X62723866Y-49738094D01*
X62723866Y-49738094D02*
X62485771Y-49738094D01*
X62485771Y-49738094D02*
X62295295Y-49690475D01*
X62295295Y-49690475D02*
X62200057Y-49642856D01*
X62200057Y-49642856D02*
X62152438Y-49595237D01*
X62152438Y-49595237D02*
X62104819Y-49499999D01*
X63104819Y-48738094D02*
X62104819Y-48738094D01*
X62723866Y-48642856D02*
X63104819Y-48357142D01*
X62438152Y-48357142D02*
X62819104Y-48738094D01*
D12*
X61227149Y-50083333D02*
X60989054Y-50249999D01*
X61227149Y-50369047D02*
X60727149Y-50369047D01*
X60727149Y-50369047D02*
X60727149Y-50178571D01*
X60727149Y-50178571D02*
X60750959Y-50130952D01*
X60750959Y-50130952D02*
X60774768Y-50107142D01*
X60774768Y-50107142D02*
X60822387Y-50083333D01*
X60822387Y-50083333D02*
X60893816Y-50083333D01*
X60893816Y-50083333D02*
X60941435Y-50107142D01*
X60941435Y-50107142D02*
X60965244Y-50130952D01*
X60965244Y-50130952D02*
X60989054Y-50178571D01*
X60989054Y-50178571D02*
X60989054Y-50369047D01*
X60727149Y-49654761D02*
X60727149Y-49749999D01*
X60727149Y-49749999D02*
X60750959Y-49797618D01*
X60750959Y-49797618D02*
X60774768Y-49821428D01*
X60774768Y-49821428D02*
X60846197Y-49869047D01*
X60846197Y-49869047D02*
X60941435Y-49892856D01*
X60941435Y-49892856D02*
X61131911Y-49892856D01*
X61131911Y-49892856D02*
X61179530Y-49869047D01*
X61179530Y-49869047D02*
X61203340Y-49845237D01*
X61203340Y-49845237D02*
X61227149Y-49797618D01*
X61227149Y-49797618D02*
X61227149Y-49702380D01*
X61227149Y-49702380D02*
X61203340Y-49654761D01*
X61203340Y-49654761D02*
X61179530Y-49630952D01*
X61179530Y-49630952D02*
X61131911Y-49607142D01*
X61131911Y-49607142D02*
X61012863Y-49607142D01*
X61012863Y-49607142D02*
X60965244Y-49630952D01*
X60965244Y-49630952D02*
X60941435Y-49654761D01*
X60941435Y-49654761D02*
X60917625Y-49702380D01*
X60917625Y-49702380D02*
X60917625Y-49797618D01*
X60917625Y-49797618D02*
X60941435Y-49845237D01*
X60941435Y-49845237D02*
X60965244Y-49869047D01*
X60965244Y-49869047D02*
X61012863Y-49892856D01*
D10*
X27104819Y-58071428D02*
X27104819Y-58642856D01*
X27104819Y-58357142D02*
X26104819Y-58357142D01*
X26104819Y-58357142D02*
X26247676Y-58452380D01*
X26247676Y-58452380D02*
X26342914Y-58547618D01*
X26342914Y-58547618D02*
X26390533Y-58642856D01*
X26104819Y-57452380D02*
X26104819Y-57357142D01*
X26104819Y-57357142D02*
X26152438Y-57261904D01*
X26152438Y-57261904D02*
X26200057Y-57214285D01*
X26200057Y-57214285D02*
X26295295Y-57166666D01*
X26295295Y-57166666D02*
X26485771Y-57119047D01*
X26485771Y-57119047D02*
X26723866Y-57119047D01*
X26723866Y-57119047D02*
X26914342Y-57166666D01*
X26914342Y-57166666D02*
X27009580Y-57214285D01*
X27009580Y-57214285D02*
X27057200Y-57261904D01*
X27057200Y-57261904D02*
X27104819Y-57357142D01*
X27104819Y-57357142D02*
X27104819Y-57452380D01*
X27104819Y-57452380D02*
X27057200Y-57547618D01*
X27057200Y-57547618D02*
X27009580Y-57595237D01*
X27009580Y-57595237D02*
X26914342Y-57642856D01*
X26914342Y-57642856D02*
X26723866Y-57690475D01*
X26723866Y-57690475D02*
X26485771Y-57690475D01*
X26485771Y-57690475D02*
X26295295Y-57642856D01*
X26295295Y-57642856D02*
X26200057Y-57595237D01*
X26200057Y-57595237D02*
X26152438Y-57547618D01*
X26152438Y-57547618D02*
X26104819Y-57452380D01*
X26104819Y-56499999D02*
X26104819Y-56404761D01*
X26104819Y-56404761D02*
X26152438Y-56309523D01*
X26152438Y-56309523D02*
X26200057Y-56261904D01*
X26200057Y-56261904D02*
X26295295Y-56214285D01*
X26295295Y-56214285D02*
X26485771Y-56166666D01*
X26485771Y-56166666D02*
X26723866Y-56166666D01*
X26723866Y-56166666D02*
X26914342Y-56214285D01*
X26914342Y-56214285D02*
X27009580Y-56261904D01*
X27009580Y-56261904D02*
X27057200Y-56309523D01*
X27057200Y-56309523D02*
X27104819Y-56404761D01*
X27104819Y-56404761D02*
X27104819Y-56499999D01*
X27104819Y-56499999D02*
X27057200Y-56595237D01*
X27057200Y-56595237D02*
X27009580Y-56642856D01*
X27009580Y-56642856D02*
X26914342Y-56690475D01*
X26914342Y-56690475D02*
X26723866Y-56738094D01*
X26723866Y-56738094D02*
X26485771Y-56738094D01*
X26485771Y-56738094D02*
X26295295Y-56690475D01*
X26295295Y-56690475D02*
X26200057Y-56642856D01*
X26200057Y-56642856D02*
X26152438Y-56595237D01*
X26152438Y-56595237D02*
X26104819Y-56499999D01*
X27104819Y-55738094D02*
X26104819Y-55738094D01*
X26723866Y-55642856D02*
X27104819Y-55357142D01*
X26438152Y-55357142D02*
X26819104Y-55738094D01*
D12*
X25227149Y-57083333D02*
X24989054Y-57249999D01*
X25227149Y-57369047D02*
X24727149Y-57369047D01*
X24727149Y-57369047D02*
X24727149Y-57178571D01*
X24727149Y-57178571D02*
X24750959Y-57130952D01*
X24750959Y-57130952D02*
X24774768Y-57107142D01*
X24774768Y-57107142D02*
X24822387Y-57083333D01*
X24822387Y-57083333D02*
X24893816Y-57083333D01*
X24893816Y-57083333D02*
X24941435Y-57107142D01*
X24941435Y-57107142D02*
X24965244Y-57130952D01*
X24965244Y-57130952D02*
X24989054Y-57178571D01*
X24989054Y-57178571D02*
X24989054Y-57369047D01*
X24941435Y-56797618D02*
X24917625Y-56845237D01*
X24917625Y-56845237D02*
X24893816Y-56869047D01*
X24893816Y-56869047D02*
X24846197Y-56892856D01*
X24846197Y-56892856D02*
X24822387Y-56892856D01*
X24822387Y-56892856D02*
X24774768Y-56869047D01*
X24774768Y-56869047D02*
X24750959Y-56845237D01*
X24750959Y-56845237D02*
X24727149Y-56797618D01*
X24727149Y-56797618D02*
X24727149Y-56702380D01*
X24727149Y-56702380D02*
X24750959Y-56654761D01*
X24750959Y-56654761D02*
X24774768Y-56630952D01*
X24774768Y-56630952D02*
X24822387Y-56607142D01*
X24822387Y-56607142D02*
X24846197Y-56607142D01*
X24846197Y-56607142D02*
X24893816Y-56630952D01*
X24893816Y-56630952D02*
X24917625Y-56654761D01*
X24917625Y-56654761D02*
X24941435Y-56702380D01*
X24941435Y-56702380D02*
X24941435Y-56797618D01*
X24941435Y-56797618D02*
X24965244Y-56845237D01*
X24965244Y-56845237D02*
X24989054Y-56869047D01*
X24989054Y-56869047D02*
X25036673Y-56892856D01*
X25036673Y-56892856D02*
X25131911Y-56892856D01*
X25131911Y-56892856D02*
X25179530Y-56869047D01*
X25179530Y-56869047D02*
X25203340Y-56845237D01*
X25203340Y-56845237D02*
X25227149Y-56797618D01*
X25227149Y-56797618D02*
X25227149Y-56702380D01*
X25227149Y-56702380D02*
X25203340Y-56654761D01*
X25203340Y-56654761D02*
X25179530Y-56630952D01*
X25179530Y-56630952D02*
X25131911Y-56607142D01*
X25131911Y-56607142D02*
X25036673Y-56607142D01*
X25036673Y-56607142D02*
X24989054Y-56630952D01*
X24989054Y-56630952D02*
X24965244Y-56654761D01*
X24965244Y-56654761D02*
X24941435Y-56702380D01*
D10*
X74238095Y-58454819D02*
X74238095Y-57454819D01*
X74238095Y-57931009D02*
X74809523Y-57931009D01*
X74809523Y-58454819D02*
X74809523Y-57454819D01*
X75714285Y-57788152D02*
X75714285Y-58454819D01*
X75476190Y-57407200D02*
X75238095Y-58121485D01*
X75238095Y-58121485D02*
X75857142Y-58121485D01*
X18309524Y-32854819D02*
X18309524Y-31854819D01*
X18309524Y-31854819D02*
X18642857Y-32569104D01*
X18642857Y-32569104D02*
X18976190Y-31854819D01*
X18976190Y-31854819D02*
X18976190Y-32854819D01*
X19452381Y-32854819D02*
X19452381Y-31854819D01*
X19452381Y-31854819D02*
X19785714Y-32569104D01*
X19785714Y-32569104D02*
X20119047Y-31854819D01*
X20119047Y-31854819D02*
X20119047Y-32854819D01*
X20928571Y-32331009D02*
X21071428Y-32378628D01*
X21071428Y-32378628D02*
X21119047Y-32426247D01*
X21119047Y-32426247D02*
X21166666Y-32521485D01*
X21166666Y-32521485D02*
X21166666Y-32664342D01*
X21166666Y-32664342D02*
X21119047Y-32759580D01*
X21119047Y-32759580D02*
X21071428Y-32807200D01*
X21071428Y-32807200D02*
X20976190Y-32854819D01*
X20976190Y-32854819D02*
X20595238Y-32854819D01*
X20595238Y-32854819D02*
X20595238Y-31854819D01*
X20595238Y-31854819D02*
X20928571Y-31854819D01*
X20928571Y-31854819D02*
X21023809Y-31902438D01*
X21023809Y-31902438D02*
X21071428Y-31950057D01*
X21071428Y-31950057D02*
X21119047Y-32045295D01*
X21119047Y-32045295D02*
X21119047Y-32140533D01*
X21119047Y-32140533D02*
X21071428Y-32235771D01*
X21071428Y-32235771D02*
X21023809Y-32283390D01*
X21023809Y-32283390D02*
X20928571Y-32331009D01*
X20928571Y-32331009D02*
X20595238Y-32331009D01*
X21452381Y-31854819D02*
X22023809Y-31854819D01*
X21738095Y-32854819D02*
X21738095Y-31854819D01*
X22261905Y-31854819D02*
X22880952Y-31854819D01*
X22880952Y-31854819D02*
X22547619Y-32235771D01*
X22547619Y-32235771D02*
X22690476Y-32235771D01*
X22690476Y-32235771D02*
X22785714Y-32283390D01*
X22785714Y-32283390D02*
X22833333Y-32331009D01*
X22833333Y-32331009D02*
X22880952Y-32426247D01*
X22880952Y-32426247D02*
X22880952Y-32664342D01*
X22880952Y-32664342D02*
X22833333Y-32759580D01*
X22833333Y-32759580D02*
X22785714Y-32807200D01*
X22785714Y-32807200D02*
X22690476Y-32854819D01*
X22690476Y-32854819D02*
X22404762Y-32854819D01*
X22404762Y-32854819D02*
X22309524Y-32807200D01*
X22309524Y-32807200D02*
X22261905Y-32759580D01*
X23357143Y-32854819D02*
X23547619Y-32854819D01*
X23547619Y-32854819D02*
X23642857Y-32807200D01*
X23642857Y-32807200D02*
X23690476Y-32759580D01*
X23690476Y-32759580D02*
X23785714Y-32616723D01*
X23785714Y-32616723D02*
X23833333Y-32426247D01*
X23833333Y-32426247D02*
X23833333Y-32045295D01*
X23833333Y-32045295D02*
X23785714Y-31950057D01*
X23785714Y-31950057D02*
X23738095Y-31902438D01*
X23738095Y-31902438D02*
X23642857Y-31854819D01*
X23642857Y-31854819D02*
X23452381Y-31854819D01*
X23452381Y-31854819D02*
X23357143Y-31902438D01*
X23357143Y-31902438D02*
X23309524Y-31950057D01*
X23309524Y-31950057D02*
X23261905Y-32045295D01*
X23261905Y-32045295D02*
X23261905Y-32283390D01*
X23261905Y-32283390D02*
X23309524Y-32378628D01*
X23309524Y-32378628D02*
X23357143Y-32426247D01*
X23357143Y-32426247D02*
X23452381Y-32473866D01*
X23452381Y-32473866D02*
X23642857Y-32473866D01*
X23642857Y-32473866D02*
X23738095Y-32426247D01*
X23738095Y-32426247D02*
X23785714Y-32378628D01*
X23785714Y-32378628D02*
X23833333Y-32283390D01*
X24452381Y-31854819D02*
X24547619Y-31854819D01*
X24547619Y-31854819D02*
X24642857Y-31902438D01*
X24642857Y-31902438D02*
X24690476Y-31950057D01*
X24690476Y-31950057D02*
X24738095Y-32045295D01*
X24738095Y-32045295D02*
X24785714Y-32235771D01*
X24785714Y-32235771D02*
X24785714Y-32473866D01*
X24785714Y-32473866D02*
X24738095Y-32664342D01*
X24738095Y-32664342D02*
X24690476Y-32759580D01*
X24690476Y-32759580D02*
X24642857Y-32807200D01*
X24642857Y-32807200D02*
X24547619Y-32854819D01*
X24547619Y-32854819D02*
X24452381Y-32854819D01*
X24452381Y-32854819D02*
X24357143Y-32807200D01*
X24357143Y-32807200D02*
X24309524Y-32759580D01*
X24309524Y-32759580D02*
X24261905Y-32664342D01*
X24261905Y-32664342D02*
X24214286Y-32473866D01*
X24214286Y-32473866D02*
X24214286Y-32235771D01*
X24214286Y-32235771D02*
X24261905Y-32045295D01*
X24261905Y-32045295D02*
X24309524Y-31950057D01*
X24309524Y-31950057D02*
X24357143Y-31902438D01*
X24357143Y-31902438D02*
X24452381Y-31854819D01*
X25642857Y-32188152D02*
X25642857Y-32854819D01*
X25404762Y-31807200D02*
X25166667Y-32521485D01*
X25166667Y-32521485D02*
X25785714Y-32521485D01*
D11*
X22395937Y-30068571D02*
X22361651Y-30137142D01*
X22361651Y-30137142D02*
X22293080Y-30205714D01*
X22293080Y-30205714D02*
X22190222Y-30308571D01*
X22190222Y-30308571D02*
X22155937Y-30377142D01*
X22155937Y-30377142D02*
X22155937Y-30445714D01*
X22327365Y-30411428D02*
X22293080Y-30480000D01*
X22293080Y-30480000D02*
X22224508Y-30548571D01*
X22224508Y-30548571D02*
X22087365Y-30582857D01*
X22087365Y-30582857D02*
X21847365Y-30582857D01*
X21847365Y-30582857D02*
X21710222Y-30548571D01*
X21710222Y-30548571D02*
X21641651Y-30480000D01*
X21641651Y-30480000D02*
X21607365Y-30411428D01*
X21607365Y-30411428D02*
X21607365Y-30274285D01*
X21607365Y-30274285D02*
X21641651Y-30205714D01*
X21641651Y-30205714D02*
X21710222Y-30137142D01*
X21710222Y-30137142D02*
X21847365Y-30102857D01*
X21847365Y-30102857D02*
X22087365Y-30102857D01*
X22087365Y-30102857D02*
X22224508Y-30137142D01*
X22224508Y-30137142D02*
X22293080Y-30205714D01*
X22293080Y-30205714D02*
X22327365Y-30274285D01*
X22327365Y-30274285D02*
X22327365Y-30411428D01*
X21675937Y-29828571D02*
X21641651Y-29794285D01*
X21641651Y-29794285D02*
X21607365Y-29725714D01*
X21607365Y-29725714D02*
X21607365Y-29554285D01*
X21607365Y-29554285D02*
X21641651Y-29485714D01*
X21641651Y-29485714D02*
X21675937Y-29451428D01*
X21675937Y-29451428D02*
X21744508Y-29417142D01*
X21744508Y-29417142D02*
X21813080Y-29417142D01*
X21813080Y-29417142D02*
X21915937Y-29451428D01*
X21915937Y-29451428D02*
X22327365Y-29862856D01*
X22327365Y-29862856D02*
X22327365Y-29417142D01*
D10*
X18104819Y-51071428D02*
X18104819Y-51642856D01*
X18104819Y-51357142D02*
X17104819Y-51357142D01*
X17104819Y-51357142D02*
X17247676Y-51452380D01*
X17247676Y-51452380D02*
X17342914Y-51547618D01*
X17342914Y-51547618D02*
X17390533Y-51642856D01*
X17104819Y-50452380D02*
X17104819Y-50357142D01*
X17104819Y-50357142D02*
X17152438Y-50261904D01*
X17152438Y-50261904D02*
X17200057Y-50214285D01*
X17200057Y-50214285D02*
X17295295Y-50166666D01*
X17295295Y-50166666D02*
X17485771Y-50119047D01*
X17485771Y-50119047D02*
X17723866Y-50119047D01*
X17723866Y-50119047D02*
X17914342Y-50166666D01*
X17914342Y-50166666D02*
X18009580Y-50214285D01*
X18009580Y-50214285D02*
X18057200Y-50261904D01*
X18057200Y-50261904D02*
X18104819Y-50357142D01*
X18104819Y-50357142D02*
X18104819Y-50452380D01*
X18104819Y-50452380D02*
X18057200Y-50547618D01*
X18057200Y-50547618D02*
X18009580Y-50595237D01*
X18009580Y-50595237D02*
X17914342Y-50642856D01*
X17914342Y-50642856D02*
X17723866Y-50690475D01*
X17723866Y-50690475D02*
X17485771Y-50690475D01*
X17485771Y-50690475D02*
X17295295Y-50642856D01*
X17295295Y-50642856D02*
X17200057Y-50595237D01*
X17200057Y-50595237D02*
X17152438Y-50547618D01*
X17152438Y-50547618D02*
X17104819Y-50452380D01*
X17104819Y-49499999D02*
X17104819Y-49404761D01*
X17104819Y-49404761D02*
X17152438Y-49309523D01*
X17152438Y-49309523D02*
X17200057Y-49261904D01*
X17200057Y-49261904D02*
X17295295Y-49214285D01*
X17295295Y-49214285D02*
X17485771Y-49166666D01*
X17485771Y-49166666D02*
X17723866Y-49166666D01*
X17723866Y-49166666D02*
X17914342Y-49214285D01*
X17914342Y-49214285D02*
X18009580Y-49261904D01*
X18009580Y-49261904D02*
X18057200Y-49309523D01*
X18057200Y-49309523D02*
X18104819Y-49404761D01*
X18104819Y-49404761D02*
X18104819Y-49499999D01*
X18104819Y-49499999D02*
X18057200Y-49595237D01*
X18057200Y-49595237D02*
X18009580Y-49642856D01*
X18009580Y-49642856D02*
X17914342Y-49690475D01*
X17914342Y-49690475D02*
X17723866Y-49738094D01*
X17723866Y-49738094D02*
X17485771Y-49738094D01*
X17485771Y-49738094D02*
X17295295Y-49690475D01*
X17295295Y-49690475D02*
X17200057Y-49642856D01*
X17200057Y-49642856D02*
X17152438Y-49595237D01*
X17152438Y-49595237D02*
X17104819Y-49499999D01*
X18104819Y-48738094D02*
X17104819Y-48738094D01*
X17723866Y-48642856D02*
X18104819Y-48357142D01*
X17438152Y-48357142D02*
X17819104Y-48738094D01*
D12*
X16227149Y-50083333D02*
X15989054Y-50249999D01*
X16227149Y-50369047D02*
X15727149Y-50369047D01*
X15727149Y-50369047D02*
X15727149Y-50178571D01*
X15727149Y-50178571D02*
X15750959Y-50130952D01*
X15750959Y-50130952D02*
X15774768Y-50107142D01*
X15774768Y-50107142D02*
X15822387Y-50083333D01*
X15822387Y-50083333D02*
X15893816Y-50083333D01*
X15893816Y-50083333D02*
X15941435Y-50107142D01*
X15941435Y-50107142D02*
X15965244Y-50130952D01*
X15965244Y-50130952D02*
X15989054Y-50178571D01*
X15989054Y-50178571D02*
X15989054Y-50369047D01*
X16227149Y-49607142D02*
X16227149Y-49892856D01*
X16227149Y-49749999D02*
X15727149Y-49749999D01*
X15727149Y-49749999D02*
X15798578Y-49797618D01*
X15798578Y-49797618D02*
X15846197Y-49845237D01*
X15846197Y-49845237D02*
X15870006Y-49892856D01*
D10*
X45104819Y-58071428D02*
X45104819Y-58642856D01*
X45104819Y-58357142D02*
X44104819Y-58357142D01*
X44104819Y-58357142D02*
X44247676Y-58452380D01*
X44247676Y-58452380D02*
X44342914Y-58547618D01*
X44342914Y-58547618D02*
X44390533Y-58642856D01*
X44104819Y-57452380D02*
X44104819Y-57357142D01*
X44104819Y-57357142D02*
X44152438Y-57261904D01*
X44152438Y-57261904D02*
X44200057Y-57214285D01*
X44200057Y-57214285D02*
X44295295Y-57166666D01*
X44295295Y-57166666D02*
X44485771Y-57119047D01*
X44485771Y-57119047D02*
X44723866Y-57119047D01*
X44723866Y-57119047D02*
X44914342Y-57166666D01*
X44914342Y-57166666D02*
X45009580Y-57214285D01*
X45009580Y-57214285D02*
X45057200Y-57261904D01*
X45057200Y-57261904D02*
X45104819Y-57357142D01*
X45104819Y-57357142D02*
X45104819Y-57452380D01*
X45104819Y-57452380D02*
X45057200Y-57547618D01*
X45057200Y-57547618D02*
X45009580Y-57595237D01*
X45009580Y-57595237D02*
X44914342Y-57642856D01*
X44914342Y-57642856D02*
X44723866Y-57690475D01*
X44723866Y-57690475D02*
X44485771Y-57690475D01*
X44485771Y-57690475D02*
X44295295Y-57642856D01*
X44295295Y-57642856D02*
X44200057Y-57595237D01*
X44200057Y-57595237D02*
X44152438Y-57547618D01*
X44152438Y-57547618D02*
X44104819Y-57452380D01*
X44104819Y-56499999D02*
X44104819Y-56404761D01*
X44104819Y-56404761D02*
X44152438Y-56309523D01*
X44152438Y-56309523D02*
X44200057Y-56261904D01*
X44200057Y-56261904D02*
X44295295Y-56214285D01*
X44295295Y-56214285D02*
X44485771Y-56166666D01*
X44485771Y-56166666D02*
X44723866Y-56166666D01*
X44723866Y-56166666D02*
X44914342Y-56214285D01*
X44914342Y-56214285D02*
X45009580Y-56261904D01*
X45009580Y-56261904D02*
X45057200Y-56309523D01*
X45057200Y-56309523D02*
X45104819Y-56404761D01*
X45104819Y-56404761D02*
X45104819Y-56499999D01*
X45104819Y-56499999D02*
X45057200Y-56595237D01*
X45057200Y-56595237D02*
X45009580Y-56642856D01*
X45009580Y-56642856D02*
X44914342Y-56690475D01*
X44914342Y-56690475D02*
X44723866Y-56738094D01*
X44723866Y-56738094D02*
X44485771Y-56738094D01*
X44485771Y-56738094D02*
X44295295Y-56690475D01*
X44295295Y-56690475D02*
X44200057Y-56642856D01*
X44200057Y-56642856D02*
X44152438Y-56595237D01*
X44152438Y-56595237D02*
X44104819Y-56499999D01*
X45104819Y-55738094D02*
X44104819Y-55738094D01*
X44723866Y-55642856D02*
X45104819Y-55357142D01*
X44438152Y-55357142D02*
X44819104Y-55738094D01*
D12*
X43227149Y-57321428D02*
X42989054Y-57488094D01*
X43227149Y-57607142D02*
X42727149Y-57607142D01*
X42727149Y-57607142D02*
X42727149Y-57416666D01*
X42727149Y-57416666D02*
X42750959Y-57369047D01*
X42750959Y-57369047D02*
X42774768Y-57345237D01*
X42774768Y-57345237D02*
X42822387Y-57321428D01*
X42822387Y-57321428D02*
X42893816Y-57321428D01*
X42893816Y-57321428D02*
X42941435Y-57345237D01*
X42941435Y-57345237D02*
X42965244Y-57369047D01*
X42965244Y-57369047D02*
X42989054Y-57416666D01*
X42989054Y-57416666D02*
X42989054Y-57607142D01*
X43227149Y-56845237D02*
X43227149Y-57130951D01*
X43227149Y-56988094D02*
X42727149Y-56988094D01*
X42727149Y-56988094D02*
X42798578Y-57035713D01*
X42798578Y-57035713D02*
X42846197Y-57083332D01*
X42846197Y-57083332D02*
X42870006Y-57130951D01*
X42727149Y-56535714D02*
X42727149Y-56488095D01*
X42727149Y-56488095D02*
X42750959Y-56440476D01*
X42750959Y-56440476D02*
X42774768Y-56416666D01*
X42774768Y-56416666D02*
X42822387Y-56392857D01*
X42822387Y-56392857D02*
X42917625Y-56369047D01*
X42917625Y-56369047D02*
X43036673Y-56369047D01*
X43036673Y-56369047D02*
X43131911Y-56392857D01*
X43131911Y-56392857D02*
X43179530Y-56416666D01*
X43179530Y-56416666D02*
X43203340Y-56440476D01*
X43203340Y-56440476D02*
X43227149Y-56488095D01*
X43227149Y-56488095D02*
X43227149Y-56535714D01*
X43227149Y-56535714D02*
X43203340Y-56583333D01*
X43203340Y-56583333D02*
X43179530Y-56607142D01*
X43179530Y-56607142D02*
X43131911Y-56630952D01*
X43131911Y-56630952D02*
X43036673Y-56654761D01*
X43036673Y-56654761D02*
X42917625Y-56654761D01*
X42917625Y-56654761D02*
X42822387Y-56630952D01*
X42822387Y-56630952D02*
X42774768Y-56607142D01*
X42774768Y-56607142D02*
X42750959Y-56583333D01*
X42750959Y-56583333D02*
X42727149Y-56535714D01*
D10*
X45104819Y-51071428D02*
X45104819Y-51642856D01*
X45104819Y-51357142D02*
X44104819Y-51357142D01*
X44104819Y-51357142D02*
X44247676Y-51452380D01*
X44247676Y-51452380D02*
X44342914Y-51547618D01*
X44342914Y-51547618D02*
X44390533Y-51642856D01*
X44104819Y-50452380D02*
X44104819Y-50357142D01*
X44104819Y-50357142D02*
X44152438Y-50261904D01*
X44152438Y-50261904D02*
X44200057Y-50214285D01*
X44200057Y-50214285D02*
X44295295Y-50166666D01*
X44295295Y-50166666D02*
X44485771Y-50119047D01*
X44485771Y-50119047D02*
X44723866Y-50119047D01*
X44723866Y-50119047D02*
X44914342Y-50166666D01*
X44914342Y-50166666D02*
X45009580Y-50214285D01*
X45009580Y-50214285D02*
X45057200Y-50261904D01*
X45057200Y-50261904D02*
X45104819Y-50357142D01*
X45104819Y-50357142D02*
X45104819Y-50452380D01*
X45104819Y-50452380D02*
X45057200Y-50547618D01*
X45057200Y-50547618D02*
X45009580Y-50595237D01*
X45009580Y-50595237D02*
X44914342Y-50642856D01*
X44914342Y-50642856D02*
X44723866Y-50690475D01*
X44723866Y-50690475D02*
X44485771Y-50690475D01*
X44485771Y-50690475D02*
X44295295Y-50642856D01*
X44295295Y-50642856D02*
X44200057Y-50595237D01*
X44200057Y-50595237D02*
X44152438Y-50547618D01*
X44152438Y-50547618D02*
X44104819Y-50452380D01*
X44104819Y-49499999D02*
X44104819Y-49404761D01*
X44104819Y-49404761D02*
X44152438Y-49309523D01*
X44152438Y-49309523D02*
X44200057Y-49261904D01*
X44200057Y-49261904D02*
X44295295Y-49214285D01*
X44295295Y-49214285D02*
X44485771Y-49166666D01*
X44485771Y-49166666D02*
X44723866Y-49166666D01*
X44723866Y-49166666D02*
X44914342Y-49214285D01*
X44914342Y-49214285D02*
X45009580Y-49261904D01*
X45009580Y-49261904D02*
X45057200Y-49309523D01*
X45057200Y-49309523D02*
X45104819Y-49404761D01*
X45104819Y-49404761D02*
X45104819Y-49499999D01*
X45104819Y-49499999D02*
X45057200Y-49595237D01*
X45057200Y-49595237D02*
X45009580Y-49642856D01*
X45009580Y-49642856D02*
X44914342Y-49690475D01*
X44914342Y-49690475D02*
X44723866Y-49738094D01*
X44723866Y-49738094D02*
X44485771Y-49738094D01*
X44485771Y-49738094D02*
X44295295Y-49690475D01*
X44295295Y-49690475D02*
X44200057Y-49642856D01*
X44200057Y-49642856D02*
X44152438Y-49595237D01*
X44152438Y-49595237D02*
X44104819Y-49499999D01*
X45104819Y-48738094D02*
X44104819Y-48738094D01*
X44723866Y-48642856D02*
X45104819Y-48357142D01*
X44438152Y-48357142D02*
X44819104Y-48738094D01*
D12*
X43227149Y-50083333D02*
X42989054Y-50249999D01*
X43227149Y-50369047D02*
X42727149Y-50369047D01*
X42727149Y-50369047D02*
X42727149Y-50178571D01*
X42727149Y-50178571D02*
X42750959Y-50130952D01*
X42750959Y-50130952D02*
X42774768Y-50107142D01*
X42774768Y-50107142D02*
X42822387Y-50083333D01*
X42822387Y-50083333D02*
X42893816Y-50083333D01*
X42893816Y-50083333D02*
X42941435Y-50107142D01*
X42941435Y-50107142D02*
X42965244Y-50130952D01*
X42965244Y-50130952D02*
X42989054Y-50178571D01*
X42989054Y-50178571D02*
X42989054Y-50369047D01*
X42893816Y-49654761D02*
X43227149Y-49654761D01*
X42703340Y-49773809D02*
X43060482Y-49892856D01*
X43060482Y-49892856D02*
X43060482Y-49583333D01*
D10*
X68357142Y-36914819D02*
X68547618Y-36914819D01*
X68547618Y-36914819D02*
X68642856Y-36962438D01*
X68642856Y-36962438D02*
X68738094Y-37057676D01*
X68738094Y-37057676D02*
X68785713Y-37248152D01*
X68785713Y-37248152D02*
X68785713Y-37581485D01*
X68785713Y-37581485D02*
X68738094Y-37771961D01*
X68738094Y-37771961D02*
X68642856Y-37867200D01*
X68642856Y-37867200D02*
X68547618Y-37914819D01*
X68547618Y-37914819D02*
X68357142Y-37914819D01*
X68357142Y-37914819D02*
X68261904Y-37867200D01*
X68261904Y-37867200D02*
X68166666Y-37771961D01*
X68166666Y-37771961D02*
X68119047Y-37581485D01*
X68119047Y-37581485D02*
X68119047Y-37248152D01*
X68119047Y-37248152D02*
X68166666Y-37057676D01*
X68166666Y-37057676D02*
X68261904Y-36962438D01*
X68261904Y-36962438D02*
X68357142Y-36914819D01*
X69214285Y-36914819D02*
X69214285Y-37724342D01*
X69214285Y-37724342D02*
X69261904Y-37819580D01*
X69261904Y-37819580D02*
X69309523Y-37867200D01*
X69309523Y-37867200D02*
X69404761Y-37914819D01*
X69404761Y-37914819D02*
X69595237Y-37914819D01*
X69595237Y-37914819D02*
X69690475Y-37867200D01*
X69690475Y-37867200D02*
X69738094Y-37819580D01*
X69738094Y-37819580D02*
X69785713Y-37724342D01*
X69785713Y-37724342D02*
X69785713Y-36914819D01*
X70119047Y-36914819D02*
X70690475Y-36914819D01*
X70404761Y-37914819D02*
X70404761Y-36914819D01*
X71785714Y-37914819D02*
X71785714Y-36914819D01*
X71785714Y-36914819D02*
X72119047Y-37629104D01*
X72119047Y-37629104D02*
X72452380Y-36914819D01*
X72452380Y-36914819D02*
X72452380Y-37914819D01*
X73642857Y-37629104D02*
X74119047Y-37629104D01*
X73547619Y-37914819D02*
X73880952Y-36914819D01*
X73880952Y-36914819D02*
X74214285Y-37914819D01*
X75833333Y-36962438D02*
X75738095Y-36914819D01*
X75738095Y-36914819D02*
X75595238Y-36914819D01*
X75595238Y-36914819D02*
X75452381Y-36962438D01*
X75452381Y-36962438D02*
X75357143Y-37057676D01*
X75357143Y-37057676D02*
X75309524Y-37152914D01*
X75309524Y-37152914D02*
X75261905Y-37343390D01*
X75261905Y-37343390D02*
X75261905Y-37486247D01*
X75261905Y-37486247D02*
X75309524Y-37676723D01*
X75309524Y-37676723D02*
X75357143Y-37771961D01*
X75357143Y-37771961D02*
X75452381Y-37867200D01*
X75452381Y-37867200D02*
X75595238Y-37914819D01*
X75595238Y-37914819D02*
X75690476Y-37914819D01*
X75690476Y-37914819D02*
X75833333Y-37867200D01*
X75833333Y-37867200D02*
X75880952Y-37819580D01*
X75880952Y-37819580D02*
X75880952Y-37486247D01*
X75880952Y-37486247D02*
X75690476Y-37486247D01*
X71454819Y-32873333D02*
X72169104Y-32873333D01*
X72169104Y-32873333D02*
X72311961Y-32920952D01*
X72311961Y-32920952D02*
X72407200Y-33016190D01*
X72407200Y-33016190D02*
X72454819Y-33159047D01*
X72454819Y-33159047D02*
X72454819Y-33254285D01*
X71550057Y-32444761D02*
X71502438Y-32397142D01*
X71502438Y-32397142D02*
X71454819Y-32301904D01*
X71454819Y-32301904D02*
X71454819Y-32063809D01*
X71454819Y-32063809D02*
X71502438Y-31968571D01*
X71502438Y-31968571D02*
X71550057Y-31920952D01*
X71550057Y-31920952D02*
X71645295Y-31873333D01*
X71645295Y-31873333D02*
X71740533Y-31873333D01*
X71740533Y-31873333D02*
X71883390Y-31920952D01*
X71883390Y-31920952D02*
X72454819Y-32492380D01*
X72454819Y-32492380D02*
X72454819Y-31873333D01*
X18309524Y-16854819D02*
X18309524Y-15854819D01*
X18309524Y-15854819D02*
X18642857Y-16569104D01*
X18642857Y-16569104D02*
X18976190Y-15854819D01*
X18976190Y-15854819D02*
X18976190Y-16854819D01*
X19452381Y-16854819D02*
X19452381Y-15854819D01*
X19452381Y-15854819D02*
X19785714Y-16569104D01*
X19785714Y-16569104D02*
X20119047Y-15854819D01*
X20119047Y-15854819D02*
X20119047Y-16854819D01*
X20928571Y-16331009D02*
X21071428Y-16378628D01*
X21071428Y-16378628D02*
X21119047Y-16426247D01*
X21119047Y-16426247D02*
X21166666Y-16521485D01*
X21166666Y-16521485D02*
X21166666Y-16664342D01*
X21166666Y-16664342D02*
X21119047Y-16759580D01*
X21119047Y-16759580D02*
X21071428Y-16807200D01*
X21071428Y-16807200D02*
X20976190Y-16854819D01*
X20976190Y-16854819D02*
X20595238Y-16854819D01*
X20595238Y-16854819D02*
X20595238Y-15854819D01*
X20595238Y-15854819D02*
X20928571Y-15854819D01*
X20928571Y-15854819D02*
X21023809Y-15902438D01*
X21023809Y-15902438D02*
X21071428Y-15950057D01*
X21071428Y-15950057D02*
X21119047Y-16045295D01*
X21119047Y-16045295D02*
X21119047Y-16140533D01*
X21119047Y-16140533D02*
X21071428Y-16235771D01*
X21071428Y-16235771D02*
X21023809Y-16283390D01*
X21023809Y-16283390D02*
X20928571Y-16331009D01*
X20928571Y-16331009D02*
X20595238Y-16331009D01*
X21452381Y-15854819D02*
X22023809Y-15854819D01*
X21738095Y-16854819D02*
X21738095Y-15854819D01*
X22261905Y-15854819D02*
X22880952Y-15854819D01*
X22880952Y-15854819D02*
X22547619Y-16235771D01*
X22547619Y-16235771D02*
X22690476Y-16235771D01*
X22690476Y-16235771D02*
X22785714Y-16283390D01*
X22785714Y-16283390D02*
X22833333Y-16331009D01*
X22833333Y-16331009D02*
X22880952Y-16426247D01*
X22880952Y-16426247D02*
X22880952Y-16664342D01*
X22880952Y-16664342D02*
X22833333Y-16759580D01*
X22833333Y-16759580D02*
X22785714Y-16807200D01*
X22785714Y-16807200D02*
X22690476Y-16854819D01*
X22690476Y-16854819D02*
X22404762Y-16854819D01*
X22404762Y-16854819D02*
X22309524Y-16807200D01*
X22309524Y-16807200D02*
X22261905Y-16759580D01*
X23357143Y-16854819D02*
X23547619Y-16854819D01*
X23547619Y-16854819D02*
X23642857Y-16807200D01*
X23642857Y-16807200D02*
X23690476Y-16759580D01*
X23690476Y-16759580D02*
X23785714Y-16616723D01*
X23785714Y-16616723D02*
X23833333Y-16426247D01*
X23833333Y-16426247D02*
X23833333Y-16045295D01*
X23833333Y-16045295D02*
X23785714Y-15950057D01*
X23785714Y-15950057D02*
X23738095Y-15902438D01*
X23738095Y-15902438D02*
X23642857Y-15854819D01*
X23642857Y-15854819D02*
X23452381Y-15854819D01*
X23452381Y-15854819D02*
X23357143Y-15902438D01*
X23357143Y-15902438D02*
X23309524Y-15950057D01*
X23309524Y-15950057D02*
X23261905Y-16045295D01*
X23261905Y-16045295D02*
X23261905Y-16283390D01*
X23261905Y-16283390D02*
X23309524Y-16378628D01*
X23309524Y-16378628D02*
X23357143Y-16426247D01*
X23357143Y-16426247D02*
X23452381Y-16473866D01*
X23452381Y-16473866D02*
X23642857Y-16473866D01*
X23642857Y-16473866D02*
X23738095Y-16426247D01*
X23738095Y-16426247D02*
X23785714Y-16378628D01*
X23785714Y-16378628D02*
X23833333Y-16283390D01*
X24452381Y-15854819D02*
X24547619Y-15854819D01*
X24547619Y-15854819D02*
X24642857Y-15902438D01*
X24642857Y-15902438D02*
X24690476Y-15950057D01*
X24690476Y-15950057D02*
X24738095Y-16045295D01*
X24738095Y-16045295D02*
X24785714Y-16235771D01*
X24785714Y-16235771D02*
X24785714Y-16473866D01*
X24785714Y-16473866D02*
X24738095Y-16664342D01*
X24738095Y-16664342D02*
X24690476Y-16759580D01*
X24690476Y-16759580D02*
X24642857Y-16807200D01*
X24642857Y-16807200D02*
X24547619Y-16854819D01*
X24547619Y-16854819D02*
X24452381Y-16854819D01*
X24452381Y-16854819D02*
X24357143Y-16807200D01*
X24357143Y-16807200D02*
X24309524Y-16759580D01*
X24309524Y-16759580D02*
X24261905Y-16664342D01*
X24261905Y-16664342D02*
X24214286Y-16473866D01*
X24214286Y-16473866D02*
X24214286Y-16235771D01*
X24214286Y-16235771D02*
X24261905Y-16045295D01*
X24261905Y-16045295D02*
X24309524Y-15950057D01*
X24309524Y-15950057D02*
X24357143Y-15902438D01*
X24357143Y-15902438D02*
X24452381Y-15854819D01*
X25642857Y-16188152D02*
X25642857Y-16854819D01*
X25404762Y-15807200D02*
X25166667Y-16521485D01*
X25166667Y-16521485D02*
X25785714Y-16521485D01*
D11*
X22395937Y-14068571D02*
X22361651Y-14137142D01*
X22361651Y-14137142D02*
X22293080Y-14205714D01*
X22293080Y-14205714D02*
X22190222Y-14308571D01*
X22190222Y-14308571D02*
X22155937Y-14377142D01*
X22155937Y-14377142D02*
X22155937Y-14445714D01*
X22327365Y-14411428D02*
X22293080Y-14480000D01*
X22293080Y-14480000D02*
X22224508Y-14548571D01*
X22224508Y-14548571D02*
X22087365Y-14582857D01*
X22087365Y-14582857D02*
X21847365Y-14582857D01*
X21847365Y-14582857D02*
X21710222Y-14548571D01*
X21710222Y-14548571D02*
X21641651Y-14480000D01*
X21641651Y-14480000D02*
X21607365Y-14411428D01*
X21607365Y-14411428D02*
X21607365Y-14274285D01*
X21607365Y-14274285D02*
X21641651Y-14205714D01*
X21641651Y-14205714D02*
X21710222Y-14137142D01*
X21710222Y-14137142D02*
X21847365Y-14102857D01*
X21847365Y-14102857D02*
X22087365Y-14102857D01*
X22087365Y-14102857D02*
X22224508Y-14137142D01*
X22224508Y-14137142D02*
X22293080Y-14205714D01*
X22293080Y-14205714D02*
X22327365Y-14274285D01*
X22327365Y-14274285D02*
X22327365Y-14411428D01*
X22327365Y-13417142D02*
X22327365Y-13828571D01*
X22327365Y-13622856D02*
X21607365Y-13622856D01*
X21607365Y-13622856D02*
X21710222Y-13691428D01*
X21710222Y-13691428D02*
X21778794Y-13759999D01*
X21778794Y-13759999D02*
X21813080Y-13828571D01*
D10*
X36104819Y-51071428D02*
X36104819Y-51642856D01*
X36104819Y-51357142D02*
X35104819Y-51357142D01*
X35104819Y-51357142D02*
X35247676Y-51452380D01*
X35247676Y-51452380D02*
X35342914Y-51547618D01*
X35342914Y-51547618D02*
X35390533Y-51642856D01*
X35104819Y-50452380D02*
X35104819Y-50357142D01*
X35104819Y-50357142D02*
X35152438Y-50261904D01*
X35152438Y-50261904D02*
X35200057Y-50214285D01*
X35200057Y-50214285D02*
X35295295Y-50166666D01*
X35295295Y-50166666D02*
X35485771Y-50119047D01*
X35485771Y-50119047D02*
X35723866Y-50119047D01*
X35723866Y-50119047D02*
X35914342Y-50166666D01*
X35914342Y-50166666D02*
X36009580Y-50214285D01*
X36009580Y-50214285D02*
X36057200Y-50261904D01*
X36057200Y-50261904D02*
X36104819Y-50357142D01*
X36104819Y-50357142D02*
X36104819Y-50452380D01*
X36104819Y-50452380D02*
X36057200Y-50547618D01*
X36057200Y-50547618D02*
X36009580Y-50595237D01*
X36009580Y-50595237D02*
X35914342Y-50642856D01*
X35914342Y-50642856D02*
X35723866Y-50690475D01*
X35723866Y-50690475D02*
X35485771Y-50690475D01*
X35485771Y-50690475D02*
X35295295Y-50642856D01*
X35295295Y-50642856D02*
X35200057Y-50595237D01*
X35200057Y-50595237D02*
X35152438Y-50547618D01*
X35152438Y-50547618D02*
X35104819Y-50452380D01*
X35104819Y-49499999D02*
X35104819Y-49404761D01*
X35104819Y-49404761D02*
X35152438Y-49309523D01*
X35152438Y-49309523D02*
X35200057Y-49261904D01*
X35200057Y-49261904D02*
X35295295Y-49214285D01*
X35295295Y-49214285D02*
X35485771Y-49166666D01*
X35485771Y-49166666D02*
X35723866Y-49166666D01*
X35723866Y-49166666D02*
X35914342Y-49214285D01*
X35914342Y-49214285D02*
X36009580Y-49261904D01*
X36009580Y-49261904D02*
X36057200Y-49309523D01*
X36057200Y-49309523D02*
X36104819Y-49404761D01*
X36104819Y-49404761D02*
X36104819Y-49499999D01*
X36104819Y-49499999D02*
X36057200Y-49595237D01*
X36057200Y-49595237D02*
X36009580Y-49642856D01*
X36009580Y-49642856D02*
X35914342Y-49690475D01*
X35914342Y-49690475D02*
X35723866Y-49738094D01*
X35723866Y-49738094D02*
X35485771Y-49738094D01*
X35485771Y-49738094D02*
X35295295Y-49690475D01*
X35295295Y-49690475D02*
X35200057Y-49642856D01*
X35200057Y-49642856D02*
X35152438Y-49595237D01*
X35152438Y-49595237D02*
X35104819Y-49499999D01*
X36104819Y-48738094D02*
X35104819Y-48738094D01*
X35723866Y-48642856D02*
X36104819Y-48357142D01*
X35438152Y-48357142D02*
X35819104Y-48738094D01*
D12*
X34227149Y-50083333D02*
X33989054Y-50249999D01*
X34227149Y-50369047D02*
X33727149Y-50369047D01*
X33727149Y-50369047D02*
X33727149Y-50178571D01*
X33727149Y-50178571D02*
X33750959Y-50130952D01*
X33750959Y-50130952D02*
X33774768Y-50107142D01*
X33774768Y-50107142D02*
X33822387Y-50083333D01*
X33822387Y-50083333D02*
X33893816Y-50083333D01*
X33893816Y-50083333D02*
X33941435Y-50107142D01*
X33941435Y-50107142D02*
X33965244Y-50130952D01*
X33965244Y-50130952D02*
X33989054Y-50178571D01*
X33989054Y-50178571D02*
X33989054Y-50369047D01*
X33727149Y-49916666D02*
X33727149Y-49607142D01*
X33727149Y-49607142D02*
X33917625Y-49773809D01*
X33917625Y-49773809D02*
X33917625Y-49702380D01*
X33917625Y-49702380D02*
X33941435Y-49654761D01*
X33941435Y-49654761D02*
X33965244Y-49630952D01*
X33965244Y-49630952D02*
X34012863Y-49607142D01*
X34012863Y-49607142D02*
X34131911Y-49607142D01*
X34131911Y-49607142D02*
X34179530Y-49630952D01*
X34179530Y-49630952D02*
X34203340Y-49654761D01*
X34203340Y-49654761D02*
X34227149Y-49702380D01*
X34227149Y-49702380D02*
X34227149Y-49845237D01*
X34227149Y-49845237D02*
X34203340Y-49892856D01*
X34203340Y-49892856D02*
X34179530Y-49916666D01*
D10*
X18104819Y-58071428D02*
X18104819Y-58642856D01*
X18104819Y-58357142D02*
X17104819Y-58357142D01*
X17104819Y-58357142D02*
X17247676Y-58452380D01*
X17247676Y-58452380D02*
X17342914Y-58547618D01*
X17342914Y-58547618D02*
X17390533Y-58642856D01*
X17104819Y-57452380D02*
X17104819Y-57357142D01*
X17104819Y-57357142D02*
X17152438Y-57261904D01*
X17152438Y-57261904D02*
X17200057Y-57214285D01*
X17200057Y-57214285D02*
X17295295Y-57166666D01*
X17295295Y-57166666D02*
X17485771Y-57119047D01*
X17485771Y-57119047D02*
X17723866Y-57119047D01*
X17723866Y-57119047D02*
X17914342Y-57166666D01*
X17914342Y-57166666D02*
X18009580Y-57214285D01*
X18009580Y-57214285D02*
X18057200Y-57261904D01*
X18057200Y-57261904D02*
X18104819Y-57357142D01*
X18104819Y-57357142D02*
X18104819Y-57452380D01*
X18104819Y-57452380D02*
X18057200Y-57547618D01*
X18057200Y-57547618D02*
X18009580Y-57595237D01*
X18009580Y-57595237D02*
X17914342Y-57642856D01*
X17914342Y-57642856D02*
X17723866Y-57690475D01*
X17723866Y-57690475D02*
X17485771Y-57690475D01*
X17485771Y-57690475D02*
X17295295Y-57642856D01*
X17295295Y-57642856D02*
X17200057Y-57595237D01*
X17200057Y-57595237D02*
X17152438Y-57547618D01*
X17152438Y-57547618D02*
X17104819Y-57452380D01*
X17104819Y-56499999D02*
X17104819Y-56404761D01*
X17104819Y-56404761D02*
X17152438Y-56309523D01*
X17152438Y-56309523D02*
X17200057Y-56261904D01*
X17200057Y-56261904D02*
X17295295Y-56214285D01*
X17295295Y-56214285D02*
X17485771Y-56166666D01*
X17485771Y-56166666D02*
X17723866Y-56166666D01*
X17723866Y-56166666D02*
X17914342Y-56214285D01*
X17914342Y-56214285D02*
X18009580Y-56261904D01*
X18009580Y-56261904D02*
X18057200Y-56309523D01*
X18057200Y-56309523D02*
X18104819Y-56404761D01*
X18104819Y-56404761D02*
X18104819Y-56499999D01*
X18104819Y-56499999D02*
X18057200Y-56595237D01*
X18057200Y-56595237D02*
X18009580Y-56642856D01*
X18009580Y-56642856D02*
X17914342Y-56690475D01*
X17914342Y-56690475D02*
X17723866Y-56738094D01*
X17723866Y-56738094D02*
X17485771Y-56738094D01*
X17485771Y-56738094D02*
X17295295Y-56690475D01*
X17295295Y-56690475D02*
X17200057Y-56642856D01*
X17200057Y-56642856D02*
X17152438Y-56595237D01*
X17152438Y-56595237D02*
X17104819Y-56499999D01*
X18104819Y-55738094D02*
X17104819Y-55738094D01*
X17723866Y-55642856D02*
X18104819Y-55357142D01*
X17438152Y-55357142D02*
X17819104Y-55738094D01*
D12*
X16227149Y-57083333D02*
X15989054Y-57249999D01*
X16227149Y-57369047D02*
X15727149Y-57369047D01*
X15727149Y-57369047D02*
X15727149Y-57178571D01*
X15727149Y-57178571D02*
X15750959Y-57130952D01*
X15750959Y-57130952D02*
X15774768Y-57107142D01*
X15774768Y-57107142D02*
X15822387Y-57083333D01*
X15822387Y-57083333D02*
X15893816Y-57083333D01*
X15893816Y-57083333D02*
X15941435Y-57107142D01*
X15941435Y-57107142D02*
X15965244Y-57130952D01*
X15965244Y-57130952D02*
X15989054Y-57178571D01*
X15989054Y-57178571D02*
X15989054Y-57369047D01*
X15727149Y-56916666D02*
X15727149Y-56583333D01*
X15727149Y-56583333D02*
X16227149Y-56797618D01*
D10*
X54104819Y-51071428D02*
X54104819Y-51642856D01*
X54104819Y-51357142D02*
X53104819Y-51357142D01*
X53104819Y-51357142D02*
X53247676Y-51452380D01*
X53247676Y-51452380D02*
X53342914Y-51547618D01*
X53342914Y-51547618D02*
X53390533Y-51642856D01*
X53104819Y-50452380D02*
X53104819Y-50357142D01*
X53104819Y-50357142D02*
X53152438Y-50261904D01*
X53152438Y-50261904D02*
X53200057Y-50214285D01*
X53200057Y-50214285D02*
X53295295Y-50166666D01*
X53295295Y-50166666D02*
X53485771Y-50119047D01*
X53485771Y-50119047D02*
X53723866Y-50119047D01*
X53723866Y-50119047D02*
X53914342Y-50166666D01*
X53914342Y-50166666D02*
X54009580Y-50214285D01*
X54009580Y-50214285D02*
X54057200Y-50261904D01*
X54057200Y-50261904D02*
X54104819Y-50357142D01*
X54104819Y-50357142D02*
X54104819Y-50452380D01*
X54104819Y-50452380D02*
X54057200Y-50547618D01*
X54057200Y-50547618D02*
X54009580Y-50595237D01*
X54009580Y-50595237D02*
X53914342Y-50642856D01*
X53914342Y-50642856D02*
X53723866Y-50690475D01*
X53723866Y-50690475D02*
X53485771Y-50690475D01*
X53485771Y-50690475D02*
X53295295Y-50642856D01*
X53295295Y-50642856D02*
X53200057Y-50595237D01*
X53200057Y-50595237D02*
X53152438Y-50547618D01*
X53152438Y-50547618D02*
X53104819Y-50452380D01*
X53104819Y-49499999D02*
X53104819Y-49404761D01*
X53104819Y-49404761D02*
X53152438Y-49309523D01*
X53152438Y-49309523D02*
X53200057Y-49261904D01*
X53200057Y-49261904D02*
X53295295Y-49214285D01*
X53295295Y-49214285D02*
X53485771Y-49166666D01*
X53485771Y-49166666D02*
X53723866Y-49166666D01*
X53723866Y-49166666D02*
X53914342Y-49214285D01*
X53914342Y-49214285D02*
X54009580Y-49261904D01*
X54009580Y-49261904D02*
X54057200Y-49309523D01*
X54057200Y-49309523D02*
X54104819Y-49404761D01*
X54104819Y-49404761D02*
X54104819Y-49499999D01*
X54104819Y-49499999D02*
X54057200Y-49595237D01*
X54057200Y-49595237D02*
X54009580Y-49642856D01*
X54009580Y-49642856D02*
X53914342Y-49690475D01*
X53914342Y-49690475D02*
X53723866Y-49738094D01*
X53723866Y-49738094D02*
X53485771Y-49738094D01*
X53485771Y-49738094D02*
X53295295Y-49690475D01*
X53295295Y-49690475D02*
X53200057Y-49642856D01*
X53200057Y-49642856D02*
X53152438Y-49595237D01*
X53152438Y-49595237D02*
X53104819Y-49499999D01*
X54104819Y-48738094D02*
X53104819Y-48738094D01*
X53723866Y-48642856D02*
X54104819Y-48357142D01*
X53438152Y-48357142D02*
X53819104Y-48738094D01*
D12*
X52227149Y-50083333D02*
X51989054Y-50249999D01*
X52227149Y-50369047D02*
X51727149Y-50369047D01*
X51727149Y-50369047D02*
X51727149Y-50178571D01*
X51727149Y-50178571D02*
X51750959Y-50130952D01*
X51750959Y-50130952D02*
X51774768Y-50107142D01*
X51774768Y-50107142D02*
X51822387Y-50083333D01*
X51822387Y-50083333D02*
X51893816Y-50083333D01*
X51893816Y-50083333D02*
X51941435Y-50107142D01*
X51941435Y-50107142D02*
X51965244Y-50130952D01*
X51965244Y-50130952D02*
X51989054Y-50178571D01*
X51989054Y-50178571D02*
X51989054Y-50369047D01*
X51727149Y-49630952D02*
X51727149Y-49869047D01*
X51727149Y-49869047D02*
X51965244Y-49892856D01*
X51965244Y-49892856D02*
X51941435Y-49869047D01*
X51941435Y-49869047D02*
X51917625Y-49821428D01*
X51917625Y-49821428D02*
X51917625Y-49702380D01*
X51917625Y-49702380D02*
X51941435Y-49654761D01*
X51941435Y-49654761D02*
X51965244Y-49630952D01*
X51965244Y-49630952D02*
X52012863Y-49607142D01*
X52012863Y-49607142D02*
X52131911Y-49607142D01*
X52131911Y-49607142D02*
X52179530Y-49630952D01*
X52179530Y-49630952D02*
X52203340Y-49654761D01*
X52203340Y-49654761D02*
X52227149Y-49702380D01*
X52227149Y-49702380D02*
X52227149Y-49821428D01*
X52227149Y-49821428D02*
X52203340Y-49869047D01*
X52203340Y-49869047D02*
X52179530Y-49892856D01*
D10*
X37880952Y-44854819D02*
X38452380Y-44854819D01*
X38166666Y-45854819D02*
X38166666Y-44854819D01*
X39261904Y-45854819D02*
X38785714Y-45854819D01*
X38785714Y-45854819D02*
X38785714Y-44854819D01*
X39785714Y-44854819D02*
X39880952Y-44854819D01*
X39880952Y-44854819D02*
X39976190Y-44902438D01*
X39976190Y-44902438D02*
X40023809Y-44950057D01*
X40023809Y-44950057D02*
X40071428Y-45045295D01*
X40071428Y-45045295D02*
X40119047Y-45235771D01*
X40119047Y-45235771D02*
X40119047Y-45473866D01*
X40119047Y-45473866D02*
X40071428Y-45664342D01*
X40071428Y-45664342D02*
X40023809Y-45759580D01*
X40023809Y-45759580D02*
X39976190Y-45807200D01*
X39976190Y-45807200D02*
X39880952Y-45854819D01*
X39880952Y-45854819D02*
X39785714Y-45854819D01*
X39785714Y-45854819D02*
X39690476Y-45807200D01*
X39690476Y-45807200D02*
X39642857Y-45759580D01*
X39642857Y-45759580D02*
X39595238Y-45664342D01*
X39595238Y-45664342D02*
X39547619Y-45473866D01*
X39547619Y-45473866D02*
X39547619Y-45235771D01*
X39547619Y-45235771D02*
X39595238Y-45045295D01*
X39595238Y-45045295D02*
X39642857Y-44950057D01*
X39642857Y-44950057D02*
X39690476Y-44902438D01*
X39690476Y-44902438D02*
X39785714Y-44854819D01*
X40452381Y-44854819D02*
X41119047Y-44854819D01*
X41119047Y-44854819D02*
X40690476Y-45854819D01*
X41452381Y-44950057D02*
X41500000Y-44902438D01*
X41500000Y-44902438D02*
X41595238Y-44854819D01*
X41595238Y-44854819D02*
X41833333Y-44854819D01*
X41833333Y-44854819D02*
X41928571Y-44902438D01*
X41928571Y-44902438D02*
X41976190Y-44950057D01*
X41976190Y-44950057D02*
X42023809Y-45045295D01*
X42023809Y-45045295D02*
X42023809Y-45140533D01*
X42023809Y-45140533D02*
X41976190Y-45283390D01*
X41976190Y-45283390D02*
X41404762Y-45854819D01*
X41404762Y-45854819D02*
X42023809Y-45854819D01*
X39454819Y-42761904D02*
X40264342Y-42761904D01*
X40264342Y-42761904D02*
X40359580Y-42714285D01*
X40359580Y-42714285D02*
X40407200Y-42666666D01*
X40407200Y-42666666D02*
X40454819Y-42571428D01*
X40454819Y-42571428D02*
X40454819Y-42380952D01*
X40454819Y-42380952D02*
X40407200Y-42285714D01*
X40407200Y-42285714D02*
X40359580Y-42238095D01*
X40359580Y-42238095D02*
X40264342Y-42190476D01*
X40264342Y-42190476D02*
X39454819Y-42190476D01*
X39550057Y-41761904D02*
X39502438Y-41714285D01*
X39502438Y-41714285D02*
X39454819Y-41619047D01*
X39454819Y-41619047D02*
X39454819Y-41380952D01*
X39454819Y-41380952D02*
X39502438Y-41285714D01*
X39502438Y-41285714D02*
X39550057Y-41238095D01*
X39550057Y-41238095D02*
X39645295Y-41190476D01*
X39645295Y-41190476D02*
X39740533Y-41190476D01*
X39740533Y-41190476D02*
X39883390Y-41238095D01*
X39883390Y-41238095D02*
X40454819Y-41809523D01*
X40454819Y-41809523D02*
X40454819Y-41190476D01*
X27104819Y-51071428D02*
X27104819Y-51642856D01*
X27104819Y-51357142D02*
X26104819Y-51357142D01*
X26104819Y-51357142D02*
X26247676Y-51452380D01*
X26247676Y-51452380D02*
X26342914Y-51547618D01*
X26342914Y-51547618D02*
X26390533Y-51642856D01*
X26104819Y-50452380D02*
X26104819Y-50357142D01*
X26104819Y-50357142D02*
X26152438Y-50261904D01*
X26152438Y-50261904D02*
X26200057Y-50214285D01*
X26200057Y-50214285D02*
X26295295Y-50166666D01*
X26295295Y-50166666D02*
X26485771Y-50119047D01*
X26485771Y-50119047D02*
X26723866Y-50119047D01*
X26723866Y-50119047D02*
X26914342Y-50166666D01*
X26914342Y-50166666D02*
X27009580Y-50214285D01*
X27009580Y-50214285D02*
X27057200Y-50261904D01*
X27057200Y-50261904D02*
X27104819Y-50357142D01*
X27104819Y-50357142D02*
X27104819Y-50452380D01*
X27104819Y-50452380D02*
X27057200Y-50547618D01*
X27057200Y-50547618D02*
X27009580Y-50595237D01*
X27009580Y-50595237D02*
X26914342Y-50642856D01*
X26914342Y-50642856D02*
X26723866Y-50690475D01*
X26723866Y-50690475D02*
X26485771Y-50690475D01*
X26485771Y-50690475D02*
X26295295Y-50642856D01*
X26295295Y-50642856D02*
X26200057Y-50595237D01*
X26200057Y-50595237D02*
X26152438Y-50547618D01*
X26152438Y-50547618D02*
X26104819Y-50452380D01*
X26104819Y-49499999D02*
X26104819Y-49404761D01*
X26104819Y-49404761D02*
X26152438Y-49309523D01*
X26152438Y-49309523D02*
X26200057Y-49261904D01*
X26200057Y-49261904D02*
X26295295Y-49214285D01*
X26295295Y-49214285D02*
X26485771Y-49166666D01*
X26485771Y-49166666D02*
X26723866Y-49166666D01*
X26723866Y-49166666D02*
X26914342Y-49214285D01*
X26914342Y-49214285D02*
X27009580Y-49261904D01*
X27009580Y-49261904D02*
X27057200Y-49309523D01*
X27057200Y-49309523D02*
X27104819Y-49404761D01*
X27104819Y-49404761D02*
X27104819Y-49499999D01*
X27104819Y-49499999D02*
X27057200Y-49595237D01*
X27057200Y-49595237D02*
X27009580Y-49642856D01*
X27009580Y-49642856D02*
X26914342Y-49690475D01*
X26914342Y-49690475D02*
X26723866Y-49738094D01*
X26723866Y-49738094D02*
X26485771Y-49738094D01*
X26485771Y-49738094D02*
X26295295Y-49690475D01*
X26295295Y-49690475D02*
X26200057Y-49642856D01*
X26200057Y-49642856D02*
X26152438Y-49595237D01*
X26152438Y-49595237D02*
X26104819Y-49499999D01*
X27104819Y-48738094D02*
X26104819Y-48738094D01*
X26723866Y-48642856D02*
X27104819Y-48357142D01*
X26438152Y-48357142D02*
X26819104Y-48738094D01*
D12*
X25227149Y-50083333D02*
X24989054Y-50249999D01*
X25227149Y-50369047D02*
X24727149Y-50369047D01*
X24727149Y-50369047D02*
X24727149Y-50178571D01*
X24727149Y-50178571D02*
X24750959Y-50130952D01*
X24750959Y-50130952D02*
X24774768Y-50107142D01*
X24774768Y-50107142D02*
X24822387Y-50083333D01*
X24822387Y-50083333D02*
X24893816Y-50083333D01*
X24893816Y-50083333D02*
X24941435Y-50107142D01*
X24941435Y-50107142D02*
X24965244Y-50130952D01*
X24965244Y-50130952D02*
X24989054Y-50178571D01*
X24989054Y-50178571D02*
X24989054Y-50369047D01*
X24774768Y-49892856D02*
X24750959Y-49869047D01*
X24750959Y-49869047D02*
X24727149Y-49821428D01*
X24727149Y-49821428D02*
X24727149Y-49702380D01*
X24727149Y-49702380D02*
X24750959Y-49654761D01*
X24750959Y-49654761D02*
X24774768Y-49630952D01*
X24774768Y-49630952D02*
X24822387Y-49607142D01*
X24822387Y-49607142D02*
X24870006Y-49607142D01*
X24870006Y-49607142D02*
X24941435Y-49630952D01*
X24941435Y-49630952D02*
X25227149Y-49916666D01*
X25227149Y-49916666D02*
X25227149Y-49607142D01*
D10*
X54104819Y-58071428D02*
X54104819Y-58642856D01*
X54104819Y-58357142D02*
X53104819Y-58357142D01*
X53104819Y-58357142D02*
X53247676Y-58452380D01*
X53247676Y-58452380D02*
X53342914Y-58547618D01*
X53342914Y-58547618D02*
X53390533Y-58642856D01*
X53104819Y-57452380D02*
X53104819Y-57357142D01*
X53104819Y-57357142D02*
X53152438Y-57261904D01*
X53152438Y-57261904D02*
X53200057Y-57214285D01*
X53200057Y-57214285D02*
X53295295Y-57166666D01*
X53295295Y-57166666D02*
X53485771Y-57119047D01*
X53485771Y-57119047D02*
X53723866Y-57119047D01*
X53723866Y-57119047D02*
X53914342Y-57166666D01*
X53914342Y-57166666D02*
X54009580Y-57214285D01*
X54009580Y-57214285D02*
X54057200Y-57261904D01*
X54057200Y-57261904D02*
X54104819Y-57357142D01*
X54104819Y-57357142D02*
X54104819Y-57452380D01*
X54104819Y-57452380D02*
X54057200Y-57547618D01*
X54057200Y-57547618D02*
X54009580Y-57595237D01*
X54009580Y-57595237D02*
X53914342Y-57642856D01*
X53914342Y-57642856D02*
X53723866Y-57690475D01*
X53723866Y-57690475D02*
X53485771Y-57690475D01*
X53485771Y-57690475D02*
X53295295Y-57642856D01*
X53295295Y-57642856D02*
X53200057Y-57595237D01*
X53200057Y-57595237D02*
X53152438Y-57547618D01*
X53152438Y-57547618D02*
X53104819Y-57452380D01*
X53104819Y-56499999D02*
X53104819Y-56404761D01*
X53104819Y-56404761D02*
X53152438Y-56309523D01*
X53152438Y-56309523D02*
X53200057Y-56261904D01*
X53200057Y-56261904D02*
X53295295Y-56214285D01*
X53295295Y-56214285D02*
X53485771Y-56166666D01*
X53485771Y-56166666D02*
X53723866Y-56166666D01*
X53723866Y-56166666D02*
X53914342Y-56214285D01*
X53914342Y-56214285D02*
X54009580Y-56261904D01*
X54009580Y-56261904D02*
X54057200Y-56309523D01*
X54057200Y-56309523D02*
X54104819Y-56404761D01*
X54104819Y-56404761D02*
X54104819Y-56499999D01*
X54104819Y-56499999D02*
X54057200Y-56595237D01*
X54057200Y-56595237D02*
X54009580Y-56642856D01*
X54009580Y-56642856D02*
X53914342Y-56690475D01*
X53914342Y-56690475D02*
X53723866Y-56738094D01*
X53723866Y-56738094D02*
X53485771Y-56738094D01*
X53485771Y-56738094D02*
X53295295Y-56690475D01*
X53295295Y-56690475D02*
X53200057Y-56642856D01*
X53200057Y-56642856D02*
X53152438Y-56595237D01*
X53152438Y-56595237D02*
X53104819Y-56499999D01*
X54104819Y-55738094D02*
X53104819Y-55738094D01*
X53723866Y-55642856D02*
X54104819Y-55357142D01*
X53438152Y-55357142D02*
X53819104Y-55738094D01*
D12*
X52227149Y-57321428D02*
X51989054Y-57488094D01*
X52227149Y-57607142D02*
X51727149Y-57607142D01*
X51727149Y-57607142D02*
X51727149Y-57416666D01*
X51727149Y-57416666D02*
X51750959Y-57369047D01*
X51750959Y-57369047D02*
X51774768Y-57345237D01*
X51774768Y-57345237D02*
X51822387Y-57321428D01*
X51822387Y-57321428D02*
X51893816Y-57321428D01*
X51893816Y-57321428D02*
X51941435Y-57345237D01*
X51941435Y-57345237D02*
X51965244Y-57369047D01*
X51965244Y-57369047D02*
X51989054Y-57416666D01*
X51989054Y-57416666D02*
X51989054Y-57607142D01*
X52227149Y-56845237D02*
X52227149Y-57130951D01*
X52227149Y-56988094D02*
X51727149Y-56988094D01*
X51727149Y-56988094D02*
X51798578Y-57035713D01*
X51798578Y-57035713D02*
X51846197Y-57083332D01*
X51846197Y-57083332D02*
X51870006Y-57130951D01*
X52227149Y-56369047D02*
X52227149Y-56654761D01*
X52227149Y-56511904D02*
X51727149Y-56511904D01*
X51727149Y-56511904D02*
X51798578Y-56559523D01*
X51798578Y-56559523D02*
X51846197Y-56607142D01*
X51846197Y-56607142D02*
X51870006Y-56654761D01*
D13*
%TO.C,Q3*%
X57675000Y-12550000D02*
X58650000Y-12550000D01*
X58650000Y-15450000D01*
X57350000Y-15450000D01*
X57350000Y-12875000D01*
X57675000Y-12550000D01*
%TO.C,J1*%
X6730000Y-29365000D02*
X7365000Y-28730000D01*
X6730000Y-36350000D02*
X6730000Y-29365000D01*
X7365000Y-28730000D02*
X9270000Y-28730000D01*
X9270000Y-28730000D02*
X9270000Y-36350000D01*
X9270000Y-36350000D02*
X6730000Y-36350000D01*
%TO.C,U1*%
X39025000Y-17675000D02*
X41950000Y-17675000D01*
X41950000Y-26325000D01*
X38050000Y-26325000D01*
X38050000Y-18650000D01*
X39025000Y-17675000D01*
%TO.C,J3*%
X38730000Y-6365000D02*
X39365000Y-5730000D01*
X38730000Y-13350000D02*
X38730000Y-6365000D01*
X39365000Y-5730000D02*
X41270000Y-5730000D01*
X41270000Y-5730000D02*
X41270000Y-13350000D01*
X41270000Y-13350000D02*
X38730000Y-13350000D01*
%TO.C,C2*%
X54000000Y-41375000D02*
X56000000Y-41375000D01*
X56000000Y-42625000D01*
X54000000Y-42625000D01*
X54000000Y-41375000D01*
%TO.C,C1*%
X54000000Y-21375000D02*
X56000000Y-21375000D01*
X56000000Y-22625000D01*
X54000000Y-22625000D01*
X54000000Y-21375000D01*
%TO.C,R9*%
X33375000Y-56000000D02*
X34625000Y-56000000D01*
X34625000Y-58000000D01*
X33375000Y-58000000D01*
X33375000Y-56000000D01*
%TO.C,R6*%
X60375000Y-49000000D02*
X61625000Y-49000000D01*
X61625000Y-51000000D01*
X60375000Y-51000000D01*
X60375000Y-49000000D01*
%TO.C,R8*%
X24375000Y-56000000D02*
X25625000Y-56000000D01*
X25625000Y-58000000D01*
X24375000Y-58000000D01*
X24375000Y-56000000D01*
%TO.C,Q2*%
X21675000Y-28550000D02*
X22650000Y-28550000D01*
X22650000Y-31450000D01*
X21350000Y-31450000D01*
X21350000Y-28875000D01*
X21675000Y-28550000D01*
%TO.C,R1*%
X15375000Y-49000000D02*
X16625000Y-49000000D01*
X16625000Y-51000000D01*
X15375000Y-51000000D01*
X15375000Y-49000000D01*
%TO.C,R10*%
X42375000Y-56000000D02*
X43625000Y-56000000D01*
X43625000Y-58000000D01*
X42375000Y-58000000D01*
X42375000Y-56000000D01*
%TO.C,R4*%
X42375000Y-49000000D02*
X43625000Y-49000000D01*
X43625000Y-51000000D01*
X42375000Y-51000000D01*
X42375000Y-49000000D01*
%TO.C,J2*%
X70730000Y-29365000D02*
X71365000Y-28730000D01*
X70730000Y-36350000D02*
X70730000Y-29365000D01*
X71365000Y-28730000D02*
X73270000Y-28730000D01*
X73270000Y-28730000D02*
X73270000Y-36350000D01*
X73270000Y-36350000D02*
X70730000Y-36350000D01*
%TO.C,Q1*%
X21675000Y-12550000D02*
X22650000Y-12550000D01*
X22650000Y-15450000D01*
X21350000Y-15450000D01*
X21350000Y-12875000D01*
X21675000Y-12550000D01*
%TO.C,R3*%
X33375000Y-49000000D02*
X34625000Y-49000000D01*
X34625000Y-51000000D01*
X33375000Y-51000000D01*
X33375000Y-49000000D01*
%TO.C,R7*%
X15375000Y-56000000D02*
X16625000Y-56000000D01*
X16625000Y-58000000D01*
X15375000Y-58000000D01*
X15375000Y-56000000D01*
%TO.C,R5*%
X51375000Y-49000000D02*
X52625000Y-49000000D01*
X52625000Y-51000000D01*
X51375000Y-51000000D01*
X51375000Y-49000000D01*
%TO.C,U2*%
X39025000Y-39550000D02*
X41950000Y-39550000D01*
X41950000Y-44450000D01*
X38050000Y-44450000D01*
X38050000Y-40525000D01*
X39025000Y-39550000D01*
%TO.C,R2*%
X24375000Y-49000000D02*
X25625000Y-49000000D01*
X25625000Y-51000000D01*
X24375000Y-51000000D01*
X24375000Y-49000000D01*
%TO.C,R11*%
X51375000Y-56000000D02*
X52625000Y-56000000D01*
X52625000Y-58000000D01*
X51375000Y-58000000D01*
X51375000Y-56000000D01*
%TD*%
M02*
