%TF.GenerationSoftware,KiCad,Pcbnew,10.0.5*%
%TF.CreationDate,2026-07-22T19:00:05-04:00*%
%TF.ProjectId,so_cristal,736f5f63-7269-4737-9461-6c2e6b696361,rev?*%
%TF.SameCoordinates,Original*%
%TF.FileFunction,Copper,L1,Top*%
%TF.FilePolarity,Positive*%
%FSLAX46Y46*%
G04 Gerber Fmt 4.6, Leading zero omitted, Abs format (unit mm)*
G04 Created by KiCad (PCBNEW 10.0.5) date 2026-07-22 19:00:05*
%MOMM*%
%LPD*%
G01*
G04 APERTURE LIST*
G04 Aperture macros list*
%AMRoundRect*
0 Rectangle with rounded corners*
0 $1 Rounding radius*
0 $2 $3 $4 $5 $6 $7 $8 $9 X,Y pos of 4 corners*
0 Add a 4 corners polygon primitive as box body*
4,1,4,$2,$3,$4,$5,$6,$7,$8,$9,$2,$3,0*
0 Add four circle primitives for the rounded corners*
1,1,$1+$1,$2,$3*
1,1,$1+$1,$4,$5*
1,1,$1+$1,$6,$7*
1,1,$1+$1,$8,$9*
0 Add four rect primitives between the rounded corners*
20,1,$1+$1,$2,$3,$4,$5,0*
20,1,$1+$1,$4,$5,$6,$7,0*
20,1,$1+$1,$6,$7,$8,$9,0*
20,1,$1+$1,$8,$9,$2,$3,0*%
G04 Aperture macros list end*
%TA.AperFunction,SMDPad,CuDef*%
%ADD10RoundRect,0.150000X-0.587500X-0.150000X0.587500X-0.150000X0.587500X0.150000X-0.587500X0.150000X0*%
%TD*%
%TA.AperFunction,ComponentPad*%
%ADD11R,1.700000X1.700000*%
%TD*%
%TA.AperFunction,ComponentPad*%
%ADD12C,1.700000*%
%TD*%
%TA.AperFunction,SMDPad,CuDef*%
%ADD13RoundRect,0.150000X-0.825000X-0.150000X0.825000X-0.150000X0.825000X0.150000X-0.825000X0.150000X0*%
%TD*%
%TA.AperFunction,SMDPad,CuDef*%
%ADD14RoundRect,0.250000X-0.250000X-0.475000X0.250000X-0.475000X0.250000X0.475000X-0.250000X0.475000X0*%
%TD*%
%TA.AperFunction,SMDPad,CuDef*%
%ADD15RoundRect,0.250000X0.450000X-0.262500X0.450000X0.262500X-0.450000X0.262500X-0.450000X-0.262500X0*%
%TD*%
%TA.AperFunction,ViaPad*%
%ADD16C,0.600000*%
%TD*%
%TA.AperFunction,Conductor*%
%ADD17C,0.200000*%
%TD*%
G04 APERTURE END LIST*
D10*
%TO.P,Q3,1*%
%TO.N,SUMV*%
X57062500Y-13050000D03*
%TO.P,Q3,2*%
%TO.N,GND*%
X57062500Y-14950000D03*
%TO.P,Q3,3*%
%TO.N,n4*%
X58937500Y-14000000D03*
%TD*%
D11*
%TO.P,J1,1*%
%TO.N,A_in*%
X8000000Y-30000000D03*
D12*
%TO.P,J1,2*%
%TO.N,B_in*%
X8000000Y-32540000D03*
%TO.P,J1,3*%
%TO.N,GND*%
X8000000Y-35080000D03*
%TD*%
D13*
%TO.P,U1,1*%
%TO.N,LOGA*%
X37525000Y-18190000D03*
%TO.P,U1,2*%
%TO.N,n1*%
X37525000Y-19460000D03*
%TO.P,U1,3*%
%TO.N,GND*%
X37525000Y-20730000D03*
%TO.P,U1,4*%
%TO.N,VCC*%
X37525000Y-22000000D03*
%TO.P,U1,5*%
%TO.N,GND*%
X37525000Y-23270000D03*
%TO.P,U1,6*%
%TO.N,n2*%
X37525000Y-24540000D03*
%TO.P,U1,7*%
%TO.N,LOGB*%
X37525000Y-25810000D03*
%TO.P,U1,8*%
%TO.N,SUMV*%
X42475000Y-25810000D03*
%TO.P,U1,9*%
%TO.N,n3*%
X42475000Y-24540000D03*
%TO.P,U1,10*%
%TO.N,GND*%
X42475000Y-23270000D03*
%TO.P,U1,11*%
%TO.N,VEE*%
X42475000Y-22000000D03*
%TO.P,U1,12*%
%TO.N,GND*%
X42475000Y-20730000D03*
%TO.P,U1,13*%
%TO.N,n4*%
X42475000Y-19460000D03*
%TO.P,U1,14*%
%TO.N,MULT*%
X42475000Y-18190000D03*
%TD*%
D11*
%TO.P,J3,1*%
%TO.N,VCC*%
X40000000Y-7000000D03*
D12*
%TO.P,J3,2*%
%TO.N,VEE*%
X40000000Y-9540000D03*
%TO.P,J3,3*%
%TO.N,GND*%
X40000000Y-12080000D03*
%TD*%
D14*
%TO.P,C2,1*%
%TO.N,VEE*%
X54050000Y-42000000D03*
%TO.P,C2,2*%
%TO.N,GND*%
X55950000Y-42000000D03*
%TD*%
%TO.P,C1,1*%
%TO.N,VCC*%
X54050000Y-22000000D03*
%TO.P,C1,2*%
%TO.N,GND*%
X55950000Y-22000000D03*
%TD*%
D15*
%TO.P,R9,1*%
%TO.N,n5*%
X34000000Y-57912500D03*
%TO.P,R9,2*%
%TO.N,ADDN*%
X34000000Y-56087500D03*
%TD*%
%TO.P,R6,1*%
%TO.N,n4*%
X61000000Y-50912500D03*
%TO.P,R6,2*%
%TO.N,MULT*%
X61000000Y-49087500D03*
%TD*%
%TO.P,R8,1*%
%TO.N,B_in*%
X25000000Y-57912500D03*
%TO.P,R8,2*%
%TO.N,n5*%
X25000000Y-56087500D03*
%TD*%
D10*
%TO.P,Q2,1*%
%TO.N,GND*%
X21062500Y-29050000D03*
%TO.P,Q2,2*%
%TO.N,LOGB*%
X21062500Y-30950000D03*
%TO.P,Q2,3*%
%TO.N,n2*%
X22937500Y-30000000D03*
%TD*%
D15*
%TO.P,R1,1*%
%TO.N,A_in*%
X16000000Y-50912500D03*
%TO.P,R1,2*%
%TO.N,n1*%
X16000000Y-49087500D03*
%TD*%
%TO.P,R10,1*%
%TO.N,ADDN*%
X43000000Y-57912500D03*
%TO.P,R10,2*%
%TO.N,n6*%
X43000000Y-56087500D03*
%TD*%
%TO.P,R4,1*%
%TO.N,LOGB*%
X43000000Y-50912500D03*
%TO.P,R4,2*%
%TO.N,n3*%
X43000000Y-49087500D03*
%TD*%
D11*
%TO.P,J2,1*%
%TO.N,MULT*%
X72000000Y-30000000D03*
D12*
%TO.P,J2,2*%
%TO.N,ADD*%
X72000000Y-32540000D03*
%TO.P,J2,3*%
%TO.N,GND*%
X72000000Y-35080000D03*
%TD*%
D10*
%TO.P,Q1,1*%
%TO.N,GND*%
X21062500Y-13050000D03*
%TO.P,Q1,2*%
%TO.N,LOGA*%
X21062500Y-14950000D03*
%TO.P,Q1,3*%
%TO.N,n1*%
X22937500Y-14000000D03*
%TD*%
D15*
%TO.P,R3,1*%
%TO.N,LOGA*%
X34000000Y-50912500D03*
%TO.P,R3,2*%
%TO.N,n3*%
X34000000Y-49087500D03*
%TD*%
%TO.P,R7,1*%
%TO.N,A_in*%
X16000000Y-57912500D03*
%TO.P,R7,2*%
%TO.N,n5*%
X16000000Y-56087500D03*
%TD*%
%TO.P,R5,1*%
%TO.N,n3*%
X52000000Y-50912500D03*
%TO.P,R5,2*%
%TO.N,SUMV*%
X52000000Y-49087500D03*
%TD*%
D13*
%TO.P,U2,1*%
%TO.N,ADDN*%
X37525000Y-40095000D03*
%TO.P,U2,2*%
%TO.N,n5*%
X37525000Y-41365000D03*
%TO.P,U2,3*%
%TO.N,GND*%
X37525000Y-42635000D03*
%TO.P,U2,4*%
%TO.N,VEE*%
X37525000Y-43905000D03*
%TO.P,U2,5*%
%TO.N,GND*%
X42475000Y-43905000D03*
%TO.P,U2,6*%
%TO.N,n6*%
X42475000Y-42635000D03*
%TO.P,U2,7*%
%TO.N,ADD*%
X42475000Y-41365000D03*
%TO.P,U2,8*%
%TO.N,VCC*%
X42475000Y-40095000D03*
%TD*%
D15*
%TO.P,R2,1*%
%TO.N,B_in*%
X25000000Y-50912500D03*
%TO.P,R2,2*%
%TO.N,n2*%
X25000000Y-49087500D03*
%TD*%
%TO.P,R11,1*%
%TO.N,n6*%
X52000000Y-57912500D03*
%TO.P,R11,2*%
%TO.N,ADD*%
X52000000Y-56087500D03*
%TD*%
D16*
%TO.N,SUMV*%
X45941200Y-47789100D03*
X48911600Y-25071900D03*
%TO.N,GND*%
X38368200Y-17370900D03*
X58594800Y-20586500D03*
X40000400Y-42635000D03*
%TO.N,n4*%
X58235300Y-15442400D03*
X57993100Y-50968100D03*
%TO.N,LOGA*%
X34888100Y-49980800D03*
X34059600Y-18384400D03*
%TO.N,n1*%
X25179700Y-18784400D03*
X14797300Y-49087500D03*
%TO.N,LOGB*%
X41947500Y-50055200D03*
X37525000Y-26645600D03*
%TO.N,n3*%
X43251800Y-48068500D03*
X43251800Y-27622500D03*
%TO.N,VEE*%
X53406400Y-40819700D03*
%TO.N,MULT*%
X55635500Y-18190000D03*
X55635500Y-30575800D03*
%TD*%
%TO.N,SUMV*%
D17*
X58345700Y-21188200D02*
X58844000Y-21188200D01*
X48911600Y-25071900D02*
X48173500Y-25810000D01*
X59418400Y-13050000D02*
X57062500Y-13050000D01*
X59196500Y-20337300D02*
X59177500Y-20318200D01*
X54423800Y-25071900D02*
X58326600Y-21169100D01*
X58844000Y-21188200D02*
X59196500Y-20835700D01*
X48173500Y-25810000D02*
X42475000Y-25810000D01*
X59177500Y-20318200D02*
X60022900Y-19472800D01*
X48911600Y-25071900D02*
X54423800Y-25071900D01*
X50701600Y-47789100D02*
X45941200Y-47789100D01*
X59196500Y-20835700D02*
X59196500Y-20337300D01*
X52000000Y-49087500D02*
X50701600Y-47789100D01*
X60022900Y-19472800D02*
X60022900Y-13654500D01*
X58326600Y-21169100D02*
X58345700Y-21188200D01*
X60022900Y-13654500D02*
X59418400Y-13050000D01*
%TO.N,GND*%
X14030000Y-29050000D02*
X8000000Y-35080000D01*
X57062500Y-20586500D02*
X57062500Y-14950000D01*
X65080000Y-42000000D02*
X72000000Y-35080000D01*
X38814500Y-19785200D02*
X37869700Y-20730000D01*
X42824000Y-20730000D02*
X42475000Y-20730000D01*
X41270400Y-43905000D02*
X42475000Y-43905000D01*
X42475000Y-23270000D02*
X42869100Y-23270000D01*
X37525000Y-42635000D02*
X40000400Y-42635000D01*
X54873100Y-20923100D02*
X55950000Y-22000000D01*
X38368200Y-17370900D02*
X38814500Y-17817200D01*
X55950000Y-42000000D02*
X65080000Y-42000000D01*
X37172400Y-20730000D02*
X37525000Y-20730000D01*
X43807900Y-21713900D02*
X44598700Y-20923100D01*
X42045500Y-20730000D02*
X40019600Y-18704100D01*
X21062500Y-29050000D02*
X26842500Y-23270000D01*
X38814500Y-17817200D02*
X38814500Y-19785200D01*
X21152800Y-12959700D02*
X33957000Y-12959700D01*
X36240300Y-23270000D02*
X36240300Y-21662100D01*
X42869100Y-23270000D02*
X43807900Y-22331200D01*
X26842500Y-23270000D02*
X36240300Y-23270000D01*
X33957000Y-12959700D02*
X38368200Y-17370900D01*
X21062500Y-13050000D02*
X21152800Y-12959700D01*
X43807900Y-21713900D02*
X42824000Y-20730000D01*
X40000400Y-42635000D02*
X41270400Y-43905000D01*
X58594800Y-20586500D02*
X57062500Y-20586500D01*
X55950000Y-22000000D02*
X57062500Y-20887500D01*
X37869700Y-20730000D02*
X37525000Y-20730000D01*
X36240300Y-23270000D02*
X37525000Y-23270000D01*
X40019600Y-12099600D02*
X40000000Y-12080000D01*
X40019600Y-18704100D02*
X40019600Y-12099600D01*
X57062500Y-20887500D02*
X57062500Y-20586500D01*
X43807900Y-22331200D02*
X43807900Y-21713900D01*
X42475000Y-20730000D02*
X42045500Y-20730000D01*
X36240300Y-21662100D02*
X37172400Y-20730000D01*
X21062500Y-29050000D02*
X14030000Y-29050000D01*
X44598700Y-20923100D02*
X54873100Y-20923100D01*
%TO.N,n4*%
X41144800Y-18483800D02*
X41144800Y-17902600D01*
X58235300Y-14343600D02*
X58235300Y-15442400D01*
X42475000Y-19460000D02*
X42121000Y-19460000D01*
X61000000Y-50912500D02*
X60944400Y-50968100D01*
X42121000Y-19460000D02*
X41144800Y-18483800D01*
X44703800Y-14343600D02*
X58235300Y-14343600D01*
X41144800Y-17902600D02*
X44703800Y-14343600D01*
X58578900Y-14000000D02*
X58235300Y-14343600D01*
X58937500Y-14000000D02*
X58578900Y-14000000D01*
X60944400Y-50968100D02*
X57993100Y-50968100D01*
%TO.N,A_in*%
X6396200Y-32467600D02*
X6396200Y-41597500D01*
X8000000Y-30000000D02*
X8000000Y-31151700D01*
X6396200Y-41597500D02*
X15755500Y-50956800D01*
X16000000Y-57912500D02*
X14991900Y-56904400D01*
X8000000Y-31151700D02*
X7712100Y-31151700D01*
X14991900Y-51720400D02*
X15755500Y-50956800D01*
X15755500Y-50956800D02*
X15955700Y-50956800D01*
X7712100Y-31151700D02*
X6396200Y-32467600D01*
X14991900Y-56904400D02*
X14991900Y-51720400D01*
X15955700Y-50956800D02*
X16000000Y-50912500D01*
%TO.N,B_in*%
X23196100Y-51923800D02*
X6797900Y-35525600D01*
X25000000Y-50912500D02*
X23988700Y-51923800D01*
X23988700Y-51923800D02*
X23988700Y-56901200D01*
X6797900Y-33742100D02*
X8000000Y-32540000D01*
X6797900Y-35525600D02*
X6797900Y-33742100D01*
X23988700Y-51923800D02*
X23196100Y-51923800D01*
X23988700Y-56901200D02*
X25000000Y-57912500D01*
%TO.N,LOGA*%
X22184300Y-13365700D02*
X32700700Y-13365700D01*
X21062500Y-14487500D02*
X22184300Y-13365700D01*
X34888100Y-50024400D02*
X34888100Y-49980800D01*
X37330600Y-18384400D02*
X34059600Y-18384400D01*
X37525000Y-18190000D02*
X37330600Y-18384400D01*
X21062500Y-14950000D02*
X21062500Y-14487500D01*
X34000000Y-50912500D02*
X34888100Y-50024400D01*
X32700700Y-13365700D02*
X37525000Y-18190000D01*
%TO.N,n1*%
X16000000Y-49087500D02*
X14797300Y-49087500D01*
X25855300Y-19460000D02*
X37525000Y-19460000D01*
X25179700Y-18784400D02*
X25179700Y-16242200D01*
X25179700Y-18784400D02*
X25855300Y-19460000D01*
X25179700Y-16242200D02*
X22937500Y-14000000D01*
%TO.N,VCC*%
X39712100Y-8151700D02*
X40000000Y-8151700D01*
X40729100Y-24023600D02*
X40729100Y-38349100D01*
X39216200Y-21489300D02*
X39216200Y-17123400D01*
X40000000Y-7000000D02*
X40000000Y-8151700D01*
X38383700Y-16290900D02*
X38383700Y-9480100D01*
X38705500Y-22000000D02*
X39216200Y-21489300D01*
X52169500Y-23880500D02*
X40872200Y-23880500D01*
X38383700Y-9480100D02*
X39712100Y-8151700D01*
X37525000Y-22000000D02*
X38705500Y-22000000D01*
X54050000Y-22000000D02*
X52169500Y-23880500D01*
X38705500Y-22000000D02*
X40729100Y-24023600D01*
X40872200Y-23880500D02*
X40729100Y-24023600D01*
X40729100Y-38349100D02*
X42475000Y-40095000D01*
X39216200Y-17123400D02*
X38383700Y-16290900D01*
%TO.N,n2*%
X38824500Y-26208900D02*
X35033400Y-30000000D01*
X38824500Y-25463900D02*
X38824500Y-26208900D01*
X22937500Y-47025000D02*
X22937500Y-30000000D01*
X37900600Y-24540000D02*
X38824500Y-25463900D01*
X35033400Y-30000000D02*
X22937500Y-30000000D01*
X37525000Y-24540000D02*
X37900600Y-24540000D01*
X25000000Y-49087500D02*
X22937500Y-47025000D01*
%TO.N,LOGB*%
X42142700Y-50055200D02*
X41947500Y-50055200D01*
X24904400Y-26645600D02*
X37525000Y-26645600D01*
X43000000Y-50912500D02*
X42142700Y-50055200D01*
X37525000Y-26645600D02*
X37525000Y-25810000D01*
X21062500Y-30487500D02*
X24904400Y-26645600D01*
X21062500Y-30950000D02*
X21062500Y-30487500D01*
%TO.N,n3*%
X50175000Y-49087500D02*
X52000000Y-50912500D01*
X42475000Y-24540000D02*
X42074100Y-24540000D01*
X42597200Y-27622500D02*
X43251800Y-27622500D01*
X42074100Y-24540000D02*
X41157400Y-25456700D01*
X43000000Y-49087500D02*
X50175000Y-49087500D01*
X41157400Y-26182700D02*
X42597200Y-27622500D01*
X43000000Y-49087500D02*
X43000000Y-48320300D01*
X41157400Y-25456700D02*
X41157400Y-26182700D01*
X43000000Y-48320300D02*
X43251800Y-48068500D01*
X34000000Y-49087500D02*
X43000000Y-49087500D01*
%TO.N,VEE*%
X36496700Y-42000000D02*
X52226100Y-42000000D01*
X36242700Y-42991200D02*
X36242700Y-42254000D01*
X42110400Y-22000000D02*
X39617900Y-19507500D01*
X36242700Y-42254000D02*
X36496700Y-42000000D01*
X39617900Y-19507500D02*
X39617900Y-16957000D01*
X38832800Y-10707200D02*
X40000000Y-9540000D01*
X52226100Y-42000000D02*
X53406400Y-40819700D01*
X39617900Y-16957000D02*
X38832800Y-16171900D01*
X53406400Y-40819700D02*
X54050000Y-41463300D01*
X37156500Y-43905000D02*
X36242700Y-42991200D01*
X37525000Y-43905000D02*
X37156500Y-43905000D01*
X54050000Y-41463300D02*
X54050000Y-42000000D01*
X42475000Y-22000000D02*
X42110400Y-22000000D01*
X38832800Y-16171900D02*
X38832800Y-10707200D01*
%TO.N,MULT*%
X72287900Y-31151700D02*
X73166800Y-32030600D01*
X42475000Y-18190000D02*
X55635500Y-18190000D01*
X72000000Y-31151700D02*
X72287900Y-31151700D01*
X73166800Y-32030600D02*
X73166800Y-36920700D01*
X72000000Y-30000000D02*
X72000000Y-30575800D01*
X72000000Y-30575800D02*
X55635500Y-30575800D01*
X72000000Y-30575800D02*
X72000000Y-31151700D01*
X73166800Y-36920700D02*
X61000000Y-49087500D01*
%TO.N,n5*%
X32998800Y-42955100D02*
X32998800Y-45825600D01*
X26011300Y-57098800D02*
X25000000Y-56087500D01*
X38822900Y-40473500D02*
X38822900Y-39759800D01*
X26011300Y-58425000D02*
X26011300Y-57912500D01*
X37931400Y-41365000D02*
X38822900Y-40473500D01*
X38495900Y-39432800D02*
X36521100Y-39432800D01*
X25681800Y-58754500D02*
X26011300Y-58425000D01*
X16000000Y-56087500D02*
X18667000Y-58754500D01*
X37525000Y-41365000D02*
X37931400Y-41365000D01*
X25000000Y-53824400D02*
X25000000Y-56087500D01*
X32998800Y-45825600D02*
X25000000Y-53824400D01*
X26011300Y-57912500D02*
X26011300Y-57098800D01*
X38822900Y-39759800D02*
X38495900Y-39432800D01*
X26011300Y-57912500D02*
X34000000Y-57912500D01*
X36521100Y-39432800D02*
X32998800Y-42955100D01*
X18667000Y-58754500D02*
X25681800Y-58754500D01*
%TO.N,ADDN*%
X34600800Y-46769500D02*
X32946300Y-48424000D01*
X34600800Y-42647400D02*
X34600800Y-46769500D01*
X35825000Y-57912500D02*
X34000000Y-56087500D01*
X32946300Y-48424000D02*
X32946300Y-55033800D01*
X37525000Y-40095000D02*
X37153200Y-40095000D01*
X37153200Y-40095000D02*
X34600800Y-42647400D01*
X43000000Y-57912500D02*
X35825000Y-57912500D01*
X32946300Y-55033800D02*
X34000000Y-56087500D01*
%TO.N,n6*%
X52000000Y-57912500D02*
X49763000Y-55675400D01*
X53003600Y-51866800D02*
X52399600Y-52470800D01*
X43000000Y-56087500D02*
X49350900Y-56087500D01*
X52399600Y-52470800D02*
X52399600Y-53038800D01*
X53003600Y-48530900D02*
X53003600Y-51866800D01*
X52182700Y-47710000D02*
X53003600Y-48530900D01*
X51333300Y-47710000D02*
X52182700Y-47710000D01*
X42475000Y-42635000D02*
X46258300Y-42635000D01*
X52399600Y-53038800D02*
X49763000Y-55675400D01*
X49350900Y-56087500D02*
X49763000Y-55675400D01*
X46258300Y-42635000D02*
X51333300Y-47710000D01*
%TO.N,ADD*%
X54902600Y-53184900D02*
X54902600Y-40199600D01*
X54902600Y-40199600D02*
X44060900Y-40199600D01*
X42895500Y-41365000D02*
X42475000Y-41365000D01*
X44060900Y-40199600D02*
X42895500Y-41365000D01*
X52000000Y-56087500D02*
X54902600Y-53184900D01*
X62562200Y-32540000D02*
X72000000Y-32540000D01*
X54902600Y-40199600D02*
X62562200Y-32540000D01*
%TD*%
M02*
