M48
; DRILL file KiCad 10.0.5 date 2026-07-22T19:00:05
; FORMAT={-:-/ absolute / metric / decimal}
; #@! TF.CreationDate,2026-07-22T19:00:05-04:00
; #@! TF.GenerationSoftware,Kicad,Pcbnew,10.0.5
; #@! TF.FileFunction,MixedPlating,1,2
FMAT,2
METRIC
; #@! TA.AperFunction,Plated,PTH,ViaDrill
T1C0.300
; #@! TA.AperFunction,Plated,PTH,ComponentDrill
T2C1.000
; #@! TA.AperFunction,NonPlated,NPTH,ComponentDrill
T3C3.200
%
G90
G05
T1
X14.797Y-49.087
X25.18Y-18.784
X34.06Y-18.384
X34.888Y-49.981
X37.525Y-26.646
X38.368Y-17.371
X40.0Y-42.635
X41.947Y-50.055
X43.252Y-27.622
X43.252Y-48.069
X45.941Y-47.789
X48.912Y-25.072
X53.406Y-40.82
X55.636Y-18.19
X55.636Y-30.576
X57.993Y-50.968
X58.235Y-15.442
X58.595Y-20.586
T2
X8.0Y-30.0
X8.0Y-32.54
X8.0Y-35.08
X40.0Y-7.0
X40.0Y-9.54
X40.0Y-12.08
X72.0Y-30.0
X72.0Y-32.54
X72.0Y-35.08
T3
X5.0Y-5.0
X5.0Y-58.0
X75.0Y-5.0
X75.0Y-58.0
M30
