%TF.GenerationSoftware,KiCad,Pcbnew,10.0.5*%
%TF.CreationDate,2026-07-22T19:00:05-04:00*%
%TF.ProjectId,so_cristal,736f5f63-7269-4737-9461-6c2e6b696361,rev?*%
%TF.SameCoordinates,Original*%
%TF.FileFunction,Legend,Top*%
%TF.FilePolarity,Positive*%
%FSLAX46Y46*%
G04 Gerber Fmt 4.6, Leading zero omitted, Abs format (unit mm)*
G04 Created by KiCad (PCBNEW 10.0.5) date 2026-07-22 19:00:05*
%MOMM*%
%LPD*%
G01*
G04 APERTURE LIST*
%ADD10C,0.150000*%
%ADD11C,0.120000*%
G04 APERTURE END LIST*
D10*
X57904761Y-12150057D02*
X57809523Y-12102438D01*
X57809523Y-12102438D02*
X57714285Y-12007200D01*
X57714285Y-12007200D02*
X57571428Y-11864342D01*
X57571428Y-11864342D02*
X57476190Y-11816723D01*
X57476190Y-11816723D02*
X57380952Y-11816723D01*
X57428571Y-12054819D02*
X57333333Y-12007200D01*
X57333333Y-12007200D02*
X57238095Y-11911961D01*
X57238095Y-11911961D02*
X57190476Y-11721485D01*
X57190476Y-11721485D02*
X57190476Y-11388152D01*
X57190476Y-11388152D02*
X57238095Y-11197676D01*
X57238095Y-11197676D02*
X57333333Y-11102438D01*
X57333333Y-11102438D02*
X57428571Y-11054819D01*
X57428571Y-11054819D02*
X57619047Y-11054819D01*
X57619047Y-11054819D02*
X57714285Y-11102438D01*
X57714285Y-11102438D02*
X57809523Y-11197676D01*
X57809523Y-11197676D02*
X57857142Y-11388152D01*
X57857142Y-11388152D02*
X57857142Y-11721485D01*
X57857142Y-11721485D02*
X57809523Y-11911961D01*
X57809523Y-11911961D02*
X57714285Y-12007200D01*
X57714285Y-12007200D02*
X57619047Y-12054819D01*
X57619047Y-12054819D02*
X57428571Y-12054819D01*
X58190476Y-11054819D02*
X58809523Y-11054819D01*
X58809523Y-11054819D02*
X58476190Y-11435771D01*
X58476190Y-11435771D02*
X58619047Y-11435771D01*
X58619047Y-11435771D02*
X58714285Y-11483390D01*
X58714285Y-11483390D02*
X58761904Y-11531009D01*
X58761904Y-11531009D02*
X58809523Y-11626247D01*
X58809523Y-11626247D02*
X58809523Y-11864342D01*
X58809523Y-11864342D02*
X58761904Y-11959580D01*
X58761904Y-11959580D02*
X58714285Y-12007200D01*
X58714285Y-12007200D02*
X58619047Y-12054819D01*
X58619047Y-12054819D02*
X58333333Y-12054819D01*
X58333333Y-12054819D02*
X58238095Y-12007200D01*
X58238095Y-12007200D02*
X58190476Y-11959580D01*
X7666666Y-27074819D02*
X7666666Y-27789104D01*
X7666666Y-27789104D02*
X7619047Y-27931961D01*
X7619047Y-27931961D02*
X7523809Y-28027200D01*
X7523809Y-28027200D02*
X7380952Y-28074819D01*
X7380952Y-28074819D02*
X7285714Y-28074819D01*
X8666666Y-28074819D02*
X8095238Y-28074819D01*
X8380952Y-28074819D02*
X8380952Y-27074819D01*
X8380952Y-27074819D02*
X8285714Y-27217676D01*
X8285714Y-27217676D02*
X8190476Y-27312914D01*
X8190476Y-27312914D02*
X8095238Y-27360533D01*
X39238095Y-16174819D02*
X39238095Y-16984342D01*
X39238095Y-16984342D02*
X39285714Y-17079580D01*
X39285714Y-17079580D02*
X39333333Y-17127200D01*
X39333333Y-17127200D02*
X39428571Y-17174819D01*
X39428571Y-17174819D02*
X39619047Y-17174819D01*
X39619047Y-17174819D02*
X39714285Y-17127200D01*
X39714285Y-17127200D02*
X39761904Y-17079580D01*
X39761904Y-17079580D02*
X39809523Y-16984342D01*
X39809523Y-16984342D02*
X39809523Y-16174819D01*
X40809523Y-17174819D02*
X40238095Y-17174819D01*
X40523809Y-17174819D02*
X40523809Y-16174819D01*
X40523809Y-16174819D02*
X40428571Y-16317676D01*
X40428571Y-16317676D02*
X40333333Y-16412914D01*
X40333333Y-16412914D02*
X40238095Y-16460533D01*
X39666666Y-4074819D02*
X39666666Y-4789104D01*
X39666666Y-4789104D02*
X39619047Y-4931961D01*
X39619047Y-4931961D02*
X39523809Y-5027200D01*
X39523809Y-5027200D02*
X39380952Y-5074819D01*
X39380952Y-5074819D02*
X39285714Y-5074819D01*
X40047619Y-4074819D02*
X40666666Y-4074819D01*
X40666666Y-4074819D02*
X40333333Y-4455771D01*
X40333333Y-4455771D02*
X40476190Y-4455771D01*
X40476190Y-4455771D02*
X40571428Y-4503390D01*
X40571428Y-4503390D02*
X40619047Y-4551009D01*
X40619047Y-4551009D02*
X40666666Y-4646247D01*
X40666666Y-4646247D02*
X40666666Y-4884342D01*
X40666666Y-4884342D02*
X40619047Y-4979580D01*
X40619047Y-4979580D02*
X40571428Y-5027200D01*
X40571428Y-5027200D02*
X40476190Y-5074819D01*
X40476190Y-5074819D02*
X40190476Y-5074819D01*
X40190476Y-5074819D02*
X40095238Y-5027200D01*
X40095238Y-5027200D02*
X40047619Y-4979580D01*
X54833333Y-40679580D02*
X54785714Y-40727200D01*
X54785714Y-40727200D02*
X54642857Y-40774819D01*
X54642857Y-40774819D02*
X54547619Y-40774819D01*
X54547619Y-40774819D02*
X54404762Y-40727200D01*
X54404762Y-40727200D02*
X54309524Y-40631961D01*
X54309524Y-40631961D02*
X54261905Y-40536723D01*
X54261905Y-40536723D02*
X54214286Y-40346247D01*
X54214286Y-40346247D02*
X54214286Y-40203390D01*
X54214286Y-40203390D02*
X54261905Y-40012914D01*
X54261905Y-40012914D02*
X54309524Y-39917676D01*
X54309524Y-39917676D02*
X54404762Y-39822438D01*
X54404762Y-39822438D02*
X54547619Y-39774819D01*
X54547619Y-39774819D02*
X54642857Y-39774819D01*
X54642857Y-39774819D02*
X54785714Y-39822438D01*
X54785714Y-39822438D02*
X54833333Y-39870057D01*
X55214286Y-39870057D02*
X55261905Y-39822438D01*
X55261905Y-39822438D02*
X55357143Y-39774819D01*
X55357143Y-39774819D02*
X55595238Y-39774819D01*
X55595238Y-39774819D02*
X55690476Y-39822438D01*
X55690476Y-39822438D02*
X55738095Y-39870057D01*
X55738095Y-39870057D02*
X55785714Y-39965295D01*
X55785714Y-39965295D02*
X55785714Y-40060533D01*
X55785714Y-40060533D02*
X55738095Y-40203390D01*
X55738095Y-40203390D02*
X55166667Y-40774819D01*
X55166667Y-40774819D02*
X55785714Y-40774819D01*
X54833333Y-20679580D02*
X54785714Y-20727200D01*
X54785714Y-20727200D02*
X54642857Y-20774819D01*
X54642857Y-20774819D02*
X54547619Y-20774819D01*
X54547619Y-20774819D02*
X54404762Y-20727200D01*
X54404762Y-20727200D02*
X54309524Y-20631961D01*
X54309524Y-20631961D02*
X54261905Y-20536723D01*
X54261905Y-20536723D02*
X54214286Y-20346247D01*
X54214286Y-20346247D02*
X54214286Y-20203390D01*
X54214286Y-20203390D02*
X54261905Y-20012914D01*
X54261905Y-20012914D02*
X54309524Y-19917676D01*
X54309524Y-19917676D02*
X54404762Y-19822438D01*
X54404762Y-19822438D02*
X54547619Y-19774819D01*
X54547619Y-19774819D02*
X54642857Y-19774819D01*
X54642857Y-19774819D02*
X54785714Y-19822438D01*
X54785714Y-19822438D02*
X54833333Y-19870057D01*
X55785714Y-20774819D02*
X55214286Y-20774819D01*
X55500000Y-20774819D02*
X55500000Y-19774819D01*
X55500000Y-19774819D02*
X55404762Y-19917676D01*
X55404762Y-19917676D02*
X55309524Y-20012914D01*
X55309524Y-20012914D02*
X55214286Y-20060533D01*
X32804819Y-57166666D02*
X32328628Y-57499999D01*
X32804819Y-57738094D02*
X31804819Y-57738094D01*
X31804819Y-57738094D02*
X31804819Y-57357142D01*
X31804819Y-57357142D02*
X31852438Y-57261904D01*
X31852438Y-57261904D02*
X31900057Y-57214285D01*
X31900057Y-57214285D02*
X31995295Y-57166666D01*
X31995295Y-57166666D02*
X32138152Y-57166666D01*
X32138152Y-57166666D02*
X32233390Y-57214285D01*
X32233390Y-57214285D02*
X32281009Y-57261904D01*
X32281009Y-57261904D02*
X32328628Y-57357142D01*
X32328628Y-57357142D02*
X32328628Y-57738094D01*
X32804819Y-56690475D02*
X32804819Y-56499999D01*
X32804819Y-56499999D02*
X32757200Y-56404761D01*
X32757200Y-56404761D02*
X32709580Y-56357142D01*
X32709580Y-56357142D02*
X32566723Y-56261904D01*
X32566723Y-56261904D02*
X32376247Y-56214285D01*
X32376247Y-56214285D02*
X31995295Y-56214285D01*
X31995295Y-56214285D02*
X31900057Y-56261904D01*
X31900057Y-56261904D02*
X31852438Y-56309523D01*
X31852438Y-56309523D02*
X31804819Y-56404761D01*
X31804819Y-56404761D02*
X31804819Y-56595237D01*
X31804819Y-56595237D02*
X31852438Y-56690475D01*
X31852438Y-56690475D02*
X31900057Y-56738094D01*
X31900057Y-56738094D02*
X31995295Y-56785713D01*
X31995295Y-56785713D02*
X32233390Y-56785713D01*
X32233390Y-56785713D02*
X32328628Y-56738094D01*
X32328628Y-56738094D02*
X32376247Y-56690475D01*
X32376247Y-56690475D02*
X32423866Y-56595237D01*
X32423866Y-56595237D02*
X32423866Y-56404761D01*
X32423866Y-56404761D02*
X32376247Y-56309523D01*
X32376247Y-56309523D02*
X32328628Y-56261904D01*
X32328628Y-56261904D02*
X32233390Y-56214285D01*
X4238095Y-54304819D02*
X4238095Y-53304819D01*
X4238095Y-53781009D02*
X4809523Y-53781009D01*
X4809523Y-54304819D02*
X4809523Y-53304819D01*
X5190476Y-53304819D02*
X5809523Y-53304819D01*
X5809523Y-53304819D02*
X5476190Y-53685771D01*
X5476190Y-53685771D02*
X5619047Y-53685771D01*
X5619047Y-53685771D02*
X5714285Y-53733390D01*
X5714285Y-53733390D02*
X5761904Y-53781009D01*
X5761904Y-53781009D02*
X5809523Y-53876247D01*
X5809523Y-53876247D02*
X5809523Y-54114342D01*
X5809523Y-54114342D02*
X5761904Y-54209580D01*
X5761904Y-54209580D02*
X5714285Y-54257200D01*
X5714285Y-54257200D02*
X5619047Y-54304819D01*
X5619047Y-54304819D02*
X5333333Y-54304819D01*
X5333333Y-54304819D02*
X5238095Y-54257200D01*
X5238095Y-54257200D02*
X5190476Y-54209580D01*
X74238095Y-1304819D02*
X74238095Y-304819D01*
X74238095Y-781009D02*
X74809523Y-781009D01*
X74809523Y-1304819D02*
X74809523Y-304819D01*
X75238095Y-400057D02*
X75285714Y-352438D01*
X75285714Y-352438D02*
X75380952Y-304819D01*
X75380952Y-304819D02*
X75619047Y-304819D01*
X75619047Y-304819D02*
X75714285Y-352438D01*
X75714285Y-352438D02*
X75761904Y-400057D01*
X75761904Y-400057D02*
X75809523Y-495295D01*
X75809523Y-495295D02*
X75809523Y-590533D01*
X75809523Y-590533D02*
X75761904Y-733390D01*
X75761904Y-733390D02*
X75190476Y-1304819D01*
X75190476Y-1304819D02*
X75809523Y-1304819D01*
X4238095Y-1304819D02*
X4238095Y-304819D01*
X4238095Y-781009D02*
X4809523Y-781009D01*
X4809523Y-1304819D02*
X4809523Y-304819D01*
X5809523Y-1304819D02*
X5238095Y-1304819D01*
X5523809Y-1304819D02*
X5523809Y-304819D01*
X5523809Y-304819D02*
X5428571Y-447676D01*
X5428571Y-447676D02*
X5333333Y-542914D01*
X5333333Y-542914D02*
X5238095Y-590533D01*
X59804819Y-50166666D02*
X59328628Y-50499999D01*
X59804819Y-50738094D02*
X58804819Y-50738094D01*
X58804819Y-50738094D02*
X58804819Y-50357142D01*
X58804819Y-50357142D02*
X58852438Y-50261904D01*
X58852438Y-50261904D02*
X58900057Y-50214285D01*
X58900057Y-50214285D02*
X58995295Y-50166666D01*
X58995295Y-50166666D02*
X59138152Y-50166666D01*
X59138152Y-50166666D02*
X59233390Y-50214285D01*
X59233390Y-50214285D02*
X59281009Y-50261904D01*
X59281009Y-50261904D02*
X59328628Y-50357142D01*
X59328628Y-50357142D02*
X59328628Y-50738094D01*
X58804819Y-49309523D02*
X58804819Y-49499999D01*
X58804819Y-49499999D02*
X58852438Y-49595237D01*
X58852438Y-49595237D02*
X58900057Y-49642856D01*
X58900057Y-49642856D02*
X59042914Y-49738094D01*
X59042914Y-49738094D02*
X59233390Y-49785713D01*
X59233390Y-49785713D02*
X59614342Y-49785713D01*
X59614342Y-49785713D02*
X59709580Y-49738094D01*
X59709580Y-49738094D02*
X59757200Y-49690475D01*
X59757200Y-49690475D02*
X59804819Y-49595237D01*
X59804819Y-49595237D02*
X59804819Y-49404761D01*
X59804819Y-49404761D02*
X59757200Y-49309523D01*
X59757200Y-49309523D02*
X59709580Y-49261904D01*
X59709580Y-49261904D02*
X59614342Y-49214285D01*
X59614342Y-49214285D02*
X59376247Y-49214285D01*
X59376247Y-49214285D02*
X59281009Y-49261904D01*
X59281009Y-49261904D02*
X59233390Y-49309523D01*
X59233390Y-49309523D02*
X59185771Y-49404761D01*
X59185771Y-49404761D02*
X59185771Y-49595237D01*
X59185771Y-49595237D02*
X59233390Y-49690475D01*
X59233390Y-49690475D02*
X59281009Y-49738094D01*
X59281009Y-49738094D02*
X59376247Y-49785713D01*
X23804819Y-57166666D02*
X23328628Y-57499999D01*
X23804819Y-57738094D02*
X22804819Y-57738094D01*
X22804819Y-57738094D02*
X22804819Y-57357142D01*
X22804819Y-57357142D02*
X22852438Y-57261904D01*
X22852438Y-57261904D02*
X22900057Y-57214285D01*
X22900057Y-57214285D02*
X22995295Y-57166666D01*
X22995295Y-57166666D02*
X23138152Y-57166666D01*
X23138152Y-57166666D02*
X23233390Y-57214285D01*
X23233390Y-57214285D02*
X23281009Y-57261904D01*
X23281009Y-57261904D02*
X23328628Y-57357142D01*
X23328628Y-57357142D02*
X23328628Y-57738094D01*
X23233390Y-56595237D02*
X23185771Y-56690475D01*
X23185771Y-56690475D02*
X23138152Y-56738094D01*
X23138152Y-56738094D02*
X23042914Y-56785713D01*
X23042914Y-56785713D02*
X22995295Y-56785713D01*
X22995295Y-56785713D02*
X22900057Y-56738094D01*
X22900057Y-56738094D02*
X22852438Y-56690475D01*
X22852438Y-56690475D02*
X22804819Y-56595237D01*
X22804819Y-56595237D02*
X22804819Y-56404761D01*
X22804819Y-56404761D02*
X22852438Y-56309523D01*
X22852438Y-56309523D02*
X22900057Y-56261904D01*
X22900057Y-56261904D02*
X22995295Y-56214285D01*
X22995295Y-56214285D02*
X23042914Y-56214285D01*
X23042914Y-56214285D02*
X23138152Y-56261904D01*
X23138152Y-56261904D02*
X23185771Y-56309523D01*
X23185771Y-56309523D02*
X23233390Y-56404761D01*
X23233390Y-56404761D02*
X23233390Y-56595237D01*
X23233390Y-56595237D02*
X23281009Y-56690475D01*
X23281009Y-56690475D02*
X23328628Y-56738094D01*
X23328628Y-56738094D02*
X23423866Y-56785713D01*
X23423866Y-56785713D02*
X23614342Y-56785713D01*
X23614342Y-56785713D02*
X23709580Y-56738094D01*
X23709580Y-56738094D02*
X23757200Y-56690475D01*
X23757200Y-56690475D02*
X23804819Y-56595237D01*
X23804819Y-56595237D02*
X23804819Y-56404761D01*
X23804819Y-56404761D02*
X23757200Y-56309523D01*
X23757200Y-56309523D02*
X23709580Y-56261904D01*
X23709580Y-56261904D02*
X23614342Y-56214285D01*
X23614342Y-56214285D02*
X23423866Y-56214285D01*
X23423866Y-56214285D02*
X23328628Y-56261904D01*
X23328628Y-56261904D02*
X23281009Y-56309523D01*
X23281009Y-56309523D02*
X23233390Y-56404761D01*
X74238095Y-54304819D02*
X74238095Y-53304819D01*
X74238095Y-53781009D02*
X74809523Y-53781009D01*
X74809523Y-54304819D02*
X74809523Y-53304819D01*
X75714285Y-53638152D02*
X75714285Y-54304819D01*
X75476190Y-53257200D02*
X75238095Y-53971485D01*
X75238095Y-53971485D02*
X75857142Y-53971485D01*
X21904761Y-28150057D02*
X21809523Y-28102438D01*
X21809523Y-28102438D02*
X21714285Y-28007200D01*
X21714285Y-28007200D02*
X21571428Y-27864342D01*
X21571428Y-27864342D02*
X21476190Y-27816723D01*
X21476190Y-27816723D02*
X21380952Y-27816723D01*
X21428571Y-28054819D02*
X21333333Y-28007200D01*
X21333333Y-28007200D02*
X21238095Y-27911961D01*
X21238095Y-27911961D02*
X21190476Y-27721485D01*
X21190476Y-27721485D02*
X21190476Y-27388152D01*
X21190476Y-27388152D02*
X21238095Y-27197676D01*
X21238095Y-27197676D02*
X21333333Y-27102438D01*
X21333333Y-27102438D02*
X21428571Y-27054819D01*
X21428571Y-27054819D02*
X21619047Y-27054819D01*
X21619047Y-27054819D02*
X21714285Y-27102438D01*
X21714285Y-27102438D02*
X21809523Y-27197676D01*
X21809523Y-27197676D02*
X21857142Y-27388152D01*
X21857142Y-27388152D02*
X21857142Y-27721485D01*
X21857142Y-27721485D02*
X21809523Y-27911961D01*
X21809523Y-27911961D02*
X21714285Y-28007200D01*
X21714285Y-28007200D02*
X21619047Y-28054819D01*
X21619047Y-28054819D02*
X21428571Y-28054819D01*
X22238095Y-27150057D02*
X22285714Y-27102438D01*
X22285714Y-27102438D02*
X22380952Y-27054819D01*
X22380952Y-27054819D02*
X22619047Y-27054819D01*
X22619047Y-27054819D02*
X22714285Y-27102438D01*
X22714285Y-27102438D02*
X22761904Y-27150057D01*
X22761904Y-27150057D02*
X22809523Y-27245295D01*
X22809523Y-27245295D02*
X22809523Y-27340533D01*
X22809523Y-27340533D02*
X22761904Y-27483390D01*
X22761904Y-27483390D02*
X22190476Y-28054819D01*
X22190476Y-28054819D02*
X22809523Y-28054819D01*
X14804819Y-50166666D02*
X14328628Y-50499999D01*
X14804819Y-50738094D02*
X13804819Y-50738094D01*
X13804819Y-50738094D02*
X13804819Y-50357142D01*
X13804819Y-50357142D02*
X13852438Y-50261904D01*
X13852438Y-50261904D02*
X13900057Y-50214285D01*
X13900057Y-50214285D02*
X13995295Y-50166666D01*
X13995295Y-50166666D02*
X14138152Y-50166666D01*
X14138152Y-50166666D02*
X14233390Y-50214285D01*
X14233390Y-50214285D02*
X14281009Y-50261904D01*
X14281009Y-50261904D02*
X14328628Y-50357142D01*
X14328628Y-50357142D02*
X14328628Y-50738094D01*
X14804819Y-49214285D02*
X14804819Y-49785713D01*
X14804819Y-49499999D02*
X13804819Y-49499999D01*
X13804819Y-49499999D02*
X13947676Y-49595237D01*
X13947676Y-49595237D02*
X14042914Y-49690475D01*
X14042914Y-49690475D02*
X14090533Y-49785713D01*
X41804819Y-57642857D02*
X41328628Y-57976190D01*
X41804819Y-58214285D02*
X40804819Y-58214285D01*
X40804819Y-58214285D02*
X40804819Y-57833333D01*
X40804819Y-57833333D02*
X40852438Y-57738095D01*
X40852438Y-57738095D02*
X40900057Y-57690476D01*
X40900057Y-57690476D02*
X40995295Y-57642857D01*
X40995295Y-57642857D02*
X41138152Y-57642857D01*
X41138152Y-57642857D02*
X41233390Y-57690476D01*
X41233390Y-57690476D02*
X41281009Y-57738095D01*
X41281009Y-57738095D02*
X41328628Y-57833333D01*
X41328628Y-57833333D02*
X41328628Y-58214285D01*
X41804819Y-56690476D02*
X41804819Y-57261904D01*
X41804819Y-56976190D02*
X40804819Y-56976190D01*
X40804819Y-56976190D02*
X40947676Y-57071428D01*
X40947676Y-57071428D02*
X41042914Y-57166666D01*
X41042914Y-57166666D02*
X41090533Y-57261904D01*
X40804819Y-56071428D02*
X40804819Y-55976190D01*
X40804819Y-55976190D02*
X40852438Y-55880952D01*
X40852438Y-55880952D02*
X40900057Y-55833333D01*
X40900057Y-55833333D02*
X40995295Y-55785714D01*
X40995295Y-55785714D02*
X41185771Y-55738095D01*
X41185771Y-55738095D02*
X41423866Y-55738095D01*
X41423866Y-55738095D02*
X41614342Y-55785714D01*
X41614342Y-55785714D02*
X41709580Y-55833333D01*
X41709580Y-55833333D02*
X41757200Y-55880952D01*
X41757200Y-55880952D02*
X41804819Y-55976190D01*
X41804819Y-55976190D02*
X41804819Y-56071428D01*
X41804819Y-56071428D02*
X41757200Y-56166666D01*
X41757200Y-56166666D02*
X41709580Y-56214285D01*
X41709580Y-56214285D02*
X41614342Y-56261904D01*
X41614342Y-56261904D02*
X41423866Y-56309523D01*
X41423866Y-56309523D02*
X41185771Y-56309523D01*
X41185771Y-56309523D02*
X40995295Y-56261904D01*
X40995295Y-56261904D02*
X40900057Y-56214285D01*
X40900057Y-56214285D02*
X40852438Y-56166666D01*
X40852438Y-56166666D02*
X40804819Y-56071428D01*
X41804819Y-50166666D02*
X41328628Y-50499999D01*
X41804819Y-50738094D02*
X40804819Y-50738094D01*
X40804819Y-50738094D02*
X40804819Y-50357142D01*
X40804819Y-50357142D02*
X40852438Y-50261904D01*
X40852438Y-50261904D02*
X40900057Y-50214285D01*
X40900057Y-50214285D02*
X40995295Y-50166666D01*
X40995295Y-50166666D02*
X41138152Y-50166666D01*
X41138152Y-50166666D02*
X41233390Y-50214285D01*
X41233390Y-50214285D02*
X41281009Y-50261904D01*
X41281009Y-50261904D02*
X41328628Y-50357142D01*
X41328628Y-50357142D02*
X41328628Y-50738094D01*
X41138152Y-49309523D02*
X41804819Y-49309523D01*
X40757200Y-49547618D02*
X41471485Y-49785713D01*
X41471485Y-49785713D02*
X41471485Y-49166666D01*
X71666666Y-27074819D02*
X71666666Y-27789104D01*
X71666666Y-27789104D02*
X71619047Y-27931961D01*
X71619047Y-27931961D02*
X71523809Y-28027200D01*
X71523809Y-28027200D02*
X71380952Y-28074819D01*
X71380952Y-28074819D02*
X71285714Y-28074819D01*
X72095238Y-27170057D02*
X72142857Y-27122438D01*
X72142857Y-27122438D02*
X72238095Y-27074819D01*
X72238095Y-27074819D02*
X72476190Y-27074819D01*
X72476190Y-27074819D02*
X72571428Y-27122438D01*
X72571428Y-27122438D02*
X72619047Y-27170057D01*
X72619047Y-27170057D02*
X72666666Y-27265295D01*
X72666666Y-27265295D02*
X72666666Y-27360533D01*
X72666666Y-27360533D02*
X72619047Y-27503390D01*
X72619047Y-27503390D02*
X72047619Y-28074819D01*
X72047619Y-28074819D02*
X72666666Y-28074819D01*
X21904761Y-12150057D02*
X21809523Y-12102438D01*
X21809523Y-12102438D02*
X21714285Y-12007200D01*
X21714285Y-12007200D02*
X21571428Y-11864342D01*
X21571428Y-11864342D02*
X21476190Y-11816723D01*
X21476190Y-11816723D02*
X21380952Y-11816723D01*
X21428571Y-12054819D02*
X21333333Y-12007200D01*
X21333333Y-12007200D02*
X21238095Y-11911961D01*
X21238095Y-11911961D02*
X21190476Y-11721485D01*
X21190476Y-11721485D02*
X21190476Y-11388152D01*
X21190476Y-11388152D02*
X21238095Y-11197676D01*
X21238095Y-11197676D02*
X21333333Y-11102438D01*
X21333333Y-11102438D02*
X21428571Y-11054819D01*
X21428571Y-11054819D02*
X21619047Y-11054819D01*
X21619047Y-11054819D02*
X21714285Y-11102438D01*
X21714285Y-11102438D02*
X21809523Y-11197676D01*
X21809523Y-11197676D02*
X21857142Y-11388152D01*
X21857142Y-11388152D02*
X21857142Y-11721485D01*
X21857142Y-11721485D02*
X21809523Y-11911961D01*
X21809523Y-11911961D02*
X21714285Y-12007200D01*
X21714285Y-12007200D02*
X21619047Y-12054819D01*
X21619047Y-12054819D02*
X21428571Y-12054819D01*
X22809523Y-12054819D02*
X22238095Y-12054819D01*
X22523809Y-12054819D02*
X22523809Y-11054819D01*
X22523809Y-11054819D02*
X22428571Y-11197676D01*
X22428571Y-11197676D02*
X22333333Y-11292914D01*
X22333333Y-11292914D02*
X22238095Y-11340533D01*
X32804819Y-50166666D02*
X32328628Y-50499999D01*
X32804819Y-50738094D02*
X31804819Y-50738094D01*
X31804819Y-50738094D02*
X31804819Y-50357142D01*
X31804819Y-50357142D02*
X31852438Y-50261904D01*
X31852438Y-50261904D02*
X31900057Y-50214285D01*
X31900057Y-50214285D02*
X31995295Y-50166666D01*
X31995295Y-50166666D02*
X32138152Y-50166666D01*
X32138152Y-50166666D02*
X32233390Y-50214285D01*
X32233390Y-50214285D02*
X32281009Y-50261904D01*
X32281009Y-50261904D02*
X32328628Y-50357142D01*
X32328628Y-50357142D02*
X32328628Y-50738094D01*
X31804819Y-49833332D02*
X31804819Y-49214285D01*
X31804819Y-49214285D02*
X32185771Y-49547618D01*
X32185771Y-49547618D02*
X32185771Y-49404761D01*
X32185771Y-49404761D02*
X32233390Y-49309523D01*
X32233390Y-49309523D02*
X32281009Y-49261904D01*
X32281009Y-49261904D02*
X32376247Y-49214285D01*
X32376247Y-49214285D02*
X32614342Y-49214285D01*
X32614342Y-49214285D02*
X32709580Y-49261904D01*
X32709580Y-49261904D02*
X32757200Y-49309523D01*
X32757200Y-49309523D02*
X32804819Y-49404761D01*
X32804819Y-49404761D02*
X32804819Y-49690475D01*
X32804819Y-49690475D02*
X32757200Y-49785713D01*
X32757200Y-49785713D02*
X32709580Y-49833332D01*
X14804819Y-57166666D02*
X14328628Y-57499999D01*
X14804819Y-57738094D02*
X13804819Y-57738094D01*
X13804819Y-57738094D02*
X13804819Y-57357142D01*
X13804819Y-57357142D02*
X13852438Y-57261904D01*
X13852438Y-57261904D02*
X13900057Y-57214285D01*
X13900057Y-57214285D02*
X13995295Y-57166666D01*
X13995295Y-57166666D02*
X14138152Y-57166666D01*
X14138152Y-57166666D02*
X14233390Y-57214285D01*
X14233390Y-57214285D02*
X14281009Y-57261904D01*
X14281009Y-57261904D02*
X14328628Y-57357142D01*
X14328628Y-57357142D02*
X14328628Y-57738094D01*
X13804819Y-56833332D02*
X13804819Y-56166666D01*
X13804819Y-56166666D02*
X14804819Y-56595237D01*
X50804819Y-50166666D02*
X50328628Y-50499999D01*
X50804819Y-50738094D02*
X49804819Y-50738094D01*
X49804819Y-50738094D02*
X49804819Y-50357142D01*
X49804819Y-50357142D02*
X49852438Y-50261904D01*
X49852438Y-50261904D02*
X49900057Y-50214285D01*
X49900057Y-50214285D02*
X49995295Y-50166666D01*
X49995295Y-50166666D02*
X50138152Y-50166666D01*
X50138152Y-50166666D02*
X50233390Y-50214285D01*
X50233390Y-50214285D02*
X50281009Y-50261904D01*
X50281009Y-50261904D02*
X50328628Y-50357142D01*
X50328628Y-50357142D02*
X50328628Y-50738094D01*
X49804819Y-49261904D02*
X49804819Y-49738094D01*
X49804819Y-49738094D02*
X50281009Y-49785713D01*
X50281009Y-49785713D02*
X50233390Y-49738094D01*
X50233390Y-49738094D02*
X50185771Y-49642856D01*
X50185771Y-49642856D02*
X50185771Y-49404761D01*
X50185771Y-49404761D02*
X50233390Y-49309523D01*
X50233390Y-49309523D02*
X50281009Y-49261904D01*
X50281009Y-49261904D02*
X50376247Y-49214285D01*
X50376247Y-49214285D02*
X50614342Y-49214285D01*
X50614342Y-49214285D02*
X50709580Y-49261904D01*
X50709580Y-49261904D02*
X50757200Y-49309523D01*
X50757200Y-49309523D02*
X50804819Y-49404761D01*
X50804819Y-49404761D02*
X50804819Y-49642856D01*
X50804819Y-49642856D02*
X50757200Y-49738094D01*
X50757200Y-49738094D02*
X50709580Y-49785713D01*
X39238095Y-38054819D02*
X39238095Y-38864342D01*
X39238095Y-38864342D02*
X39285714Y-38959580D01*
X39285714Y-38959580D02*
X39333333Y-39007200D01*
X39333333Y-39007200D02*
X39428571Y-39054819D01*
X39428571Y-39054819D02*
X39619047Y-39054819D01*
X39619047Y-39054819D02*
X39714285Y-39007200D01*
X39714285Y-39007200D02*
X39761904Y-38959580D01*
X39761904Y-38959580D02*
X39809523Y-38864342D01*
X39809523Y-38864342D02*
X39809523Y-38054819D01*
X40238095Y-38150057D02*
X40285714Y-38102438D01*
X40285714Y-38102438D02*
X40380952Y-38054819D01*
X40380952Y-38054819D02*
X40619047Y-38054819D01*
X40619047Y-38054819D02*
X40714285Y-38102438D01*
X40714285Y-38102438D02*
X40761904Y-38150057D01*
X40761904Y-38150057D02*
X40809523Y-38245295D01*
X40809523Y-38245295D02*
X40809523Y-38340533D01*
X40809523Y-38340533D02*
X40761904Y-38483390D01*
X40761904Y-38483390D02*
X40190476Y-39054819D01*
X40190476Y-39054819D02*
X40809523Y-39054819D01*
X23804819Y-50166666D02*
X23328628Y-50499999D01*
X23804819Y-50738094D02*
X22804819Y-50738094D01*
X22804819Y-50738094D02*
X22804819Y-50357142D01*
X22804819Y-50357142D02*
X22852438Y-50261904D01*
X22852438Y-50261904D02*
X22900057Y-50214285D01*
X22900057Y-50214285D02*
X22995295Y-50166666D01*
X22995295Y-50166666D02*
X23138152Y-50166666D01*
X23138152Y-50166666D02*
X23233390Y-50214285D01*
X23233390Y-50214285D02*
X23281009Y-50261904D01*
X23281009Y-50261904D02*
X23328628Y-50357142D01*
X23328628Y-50357142D02*
X23328628Y-50738094D01*
X22900057Y-49785713D02*
X22852438Y-49738094D01*
X22852438Y-49738094D02*
X22804819Y-49642856D01*
X22804819Y-49642856D02*
X22804819Y-49404761D01*
X22804819Y-49404761D02*
X22852438Y-49309523D01*
X22852438Y-49309523D02*
X22900057Y-49261904D01*
X22900057Y-49261904D02*
X22995295Y-49214285D01*
X22995295Y-49214285D02*
X23090533Y-49214285D01*
X23090533Y-49214285D02*
X23233390Y-49261904D01*
X23233390Y-49261904D02*
X23804819Y-49833332D01*
X23804819Y-49833332D02*
X23804819Y-49214285D01*
X50804819Y-57642857D02*
X50328628Y-57976190D01*
X50804819Y-58214285D02*
X49804819Y-58214285D01*
X49804819Y-58214285D02*
X49804819Y-57833333D01*
X49804819Y-57833333D02*
X49852438Y-57738095D01*
X49852438Y-57738095D02*
X49900057Y-57690476D01*
X49900057Y-57690476D02*
X49995295Y-57642857D01*
X49995295Y-57642857D02*
X50138152Y-57642857D01*
X50138152Y-57642857D02*
X50233390Y-57690476D01*
X50233390Y-57690476D02*
X50281009Y-57738095D01*
X50281009Y-57738095D02*
X50328628Y-57833333D01*
X50328628Y-57833333D02*
X50328628Y-58214285D01*
X50804819Y-56690476D02*
X50804819Y-57261904D01*
X50804819Y-56976190D02*
X49804819Y-56976190D01*
X49804819Y-56976190D02*
X49947676Y-57071428D01*
X49947676Y-57071428D02*
X50042914Y-57166666D01*
X50042914Y-57166666D02*
X50090533Y-57261904D01*
X50804819Y-55738095D02*
X50804819Y-56309523D01*
X50804819Y-56023809D02*
X49804819Y-56023809D01*
X49804819Y-56023809D02*
X49947676Y-56119047D01*
X49947676Y-56119047D02*
X50042914Y-56214285D01*
X50042914Y-56214285D02*
X50090533Y-56309523D01*
%TO.C,Q3*%
D11*
X57240000Y-12440000D02*
X58760000Y-12440000D01*
X57240000Y-12490000D02*
X57240000Y-12440000D01*
X57240000Y-14390000D02*
X57240000Y-13610000D01*
X57240000Y-15560000D02*
X57240000Y-15510000D01*
X58760000Y-12440000D02*
X58760000Y-13440000D01*
X58760000Y-14560000D02*
X58760000Y-15560000D01*
X58760000Y-15560000D02*
X57240000Y-15560000D01*
X56700000Y-13620000D02*
X56940000Y-13950000D01*
X56460000Y-13950000D01*
X56700000Y-13620000D01*
G36*
X56940000Y-13950000D02*
G01*
X56460000Y-13950000D01*
X56700000Y-13620000D01*
X56940000Y-13950000D01*
G37*
%TO.C,J1*%
X6620000Y-28620000D02*
X8000000Y-28620000D01*
X6620000Y-30000000D02*
X6620000Y-28620000D01*
X6620000Y-31270000D02*
X6620000Y-36460000D01*
X6620000Y-31270000D02*
X9380000Y-31270000D01*
X6620000Y-36460000D02*
X9380000Y-36460000D01*
X9380000Y-31270000D02*
X9380000Y-36460000D01*
%TO.C,U1*%
X37940000Y-17565000D02*
X42060000Y-17565000D01*
X37940000Y-17630000D02*
X37940000Y-17565000D01*
X37940000Y-26435000D02*
X37940000Y-26370000D01*
X42060000Y-17565000D02*
X42060000Y-17630000D01*
X42060000Y-26370000D02*
X42060000Y-26435000D01*
X42060000Y-26435000D02*
X37940000Y-26435000D01*
X37400000Y-17630000D02*
X37160000Y-17300000D01*
X37640000Y-17300000D01*
X37400000Y-17630000D01*
G36*
X37400000Y-17630000D02*
G01*
X37160000Y-17300000D01*
X37640000Y-17300000D01*
X37400000Y-17630000D01*
G37*
%TO.C,J3*%
X38620000Y-5620000D02*
X40000000Y-5620000D01*
X38620000Y-7000000D02*
X38620000Y-5620000D01*
X38620000Y-8270000D02*
X38620000Y-13460000D01*
X38620000Y-8270000D02*
X41380000Y-8270000D01*
X38620000Y-13460000D02*
X41380000Y-13460000D01*
X41380000Y-8270000D02*
X41380000Y-13460000D01*
%TO.C,C2*%
X54738748Y-41265000D02*
X55261252Y-41265000D01*
X54738748Y-42735000D02*
X55261252Y-42735000D01*
%TO.C,C1*%
X54738748Y-21265000D02*
X55261252Y-21265000D01*
X54738748Y-22735000D02*
X55261252Y-22735000D01*
%TO.C,R9*%
X33265000Y-57227064D02*
X33265000Y-56772936D01*
X34735000Y-57227064D02*
X34735000Y-56772936D01*
%TO.C,R6*%
X60265000Y-50227064D02*
X60265000Y-49772936D01*
X61735000Y-50227064D02*
X61735000Y-49772936D01*
%TO.C,R8*%
X24265000Y-57227064D02*
X24265000Y-56772936D01*
X25735000Y-57227064D02*
X25735000Y-56772936D01*
%TO.C,Q2*%
X21240000Y-28440000D02*
X22760000Y-28440000D01*
X21240000Y-28490000D02*
X21240000Y-28440000D01*
X21240000Y-30390000D02*
X21240000Y-29610000D01*
X21240000Y-31560000D02*
X21240000Y-31510000D01*
X22760000Y-28440000D02*
X22760000Y-29440000D01*
X22760000Y-30560000D02*
X22760000Y-31560000D01*
X22760000Y-31560000D02*
X21240000Y-31560000D01*
X20700000Y-29620000D02*
X20940000Y-29950000D01*
X20460000Y-29950000D01*
X20700000Y-29620000D01*
G36*
X20940000Y-29950000D02*
G01*
X20460000Y-29950000D01*
X20700000Y-29620000D01*
X20940000Y-29950000D01*
G37*
%TO.C,R1*%
X15265000Y-50227064D02*
X15265000Y-49772936D01*
X16735000Y-50227064D02*
X16735000Y-49772936D01*
%TO.C,R10*%
X42265000Y-57227064D02*
X42265000Y-56772936D01*
X43735000Y-57227064D02*
X43735000Y-56772936D01*
%TO.C,R4*%
X42265000Y-50227064D02*
X42265000Y-49772936D01*
X43735000Y-50227064D02*
X43735000Y-49772936D01*
%TO.C,J2*%
X70620000Y-28620000D02*
X72000000Y-28620000D01*
X70620000Y-30000000D02*
X70620000Y-28620000D01*
X70620000Y-31270000D02*
X70620000Y-36460000D01*
X70620000Y-31270000D02*
X73380000Y-31270000D01*
X70620000Y-36460000D02*
X73380000Y-36460000D01*
X73380000Y-31270000D02*
X73380000Y-36460000D01*
%TO.C,Q1*%
X21240000Y-12440000D02*
X22760000Y-12440000D01*
X21240000Y-12490000D02*
X21240000Y-12440000D01*
X21240000Y-14390000D02*
X21240000Y-13610000D01*
X21240000Y-15560000D02*
X21240000Y-15510000D01*
X22760000Y-12440000D02*
X22760000Y-13440000D01*
X22760000Y-14560000D02*
X22760000Y-15560000D01*
X22760000Y-15560000D02*
X21240000Y-15560000D01*
X20700000Y-13620000D02*
X20940000Y-13950000D01*
X20460000Y-13950000D01*
X20700000Y-13620000D01*
G36*
X20940000Y-13950000D02*
G01*
X20460000Y-13950000D01*
X20700000Y-13620000D01*
X20940000Y-13950000D01*
G37*
%TO.C,R3*%
X33265000Y-50227064D02*
X33265000Y-49772936D01*
X34735000Y-50227064D02*
X34735000Y-49772936D01*
%TO.C,R7*%
X15265000Y-57227064D02*
X15265000Y-56772936D01*
X16735000Y-57227064D02*
X16735000Y-56772936D01*
%TO.C,R5*%
X51265000Y-50227064D02*
X51265000Y-49772936D01*
X52735000Y-50227064D02*
X52735000Y-49772936D01*
%TO.C,U2*%
X37940000Y-39440000D02*
X42060000Y-39440000D01*
X37940000Y-39535000D02*
X37940000Y-39440000D01*
X37940000Y-44560000D02*
X37940000Y-44465000D01*
X42060000Y-39440000D02*
X42060000Y-39535000D01*
X42060000Y-44465000D02*
X42060000Y-44560000D01*
X42060000Y-44560000D02*
X37940000Y-44560000D01*
X37400000Y-39530000D02*
X37160000Y-39200000D01*
X37640000Y-39200000D01*
X37400000Y-39530000D01*
G36*
X37400000Y-39530000D02*
G01*
X37160000Y-39200000D01*
X37640000Y-39200000D01*
X37400000Y-39530000D01*
G37*
%TO.C,R2*%
X24265000Y-50227064D02*
X24265000Y-49772936D01*
X25735000Y-50227064D02*
X25735000Y-49772936D01*
%TO.C,R11*%
X51265000Y-57227064D02*
X51265000Y-56772936D01*
X52735000Y-57227064D02*
X52735000Y-56772936D01*
%TD*%
M02*
